  0
SECTION
  2
HEADER
  9
$ACADVER
  1
AC1009
  9
$INSBASE
 10
0.0
 20
0.0
 30
0.0
  9
$EXTMIN
 10
0.0
 20
0.0
 30
0.0
  9
$EXTMAX
 10
0.0
 20
0.0
 30
0.0
  0
ENDSEC
  0
SECTION
  2
TABLES
  0
TABLE
  2
VPORT
 70
1
  0
VPORT
  2
*ACTIVE
 70
0
 10
0.0
 20
0.0
 11
1.0
 21
1.0
 12
-5.0
 22
1.0
 13
0.0
 23
0.0
 14
0.1
 24
0.1
 15
0.1
 25
0.1
 16
0.0
 26
0.0
 36
1.0
 17
0.0
 27
0.0
 37
0.0
 40
10.0
 41
1.0
 42
50.0
 43
0.0
 44
0.0
 50
0.0
 51
0.0
 71
0
 72
100
 73
1
 74
1
 75
0
 76
0
 77
0
 78
0
  0
ENDTAB
  0
TABLE
  2
LTYPE
 70
8
  0
LTYPE
  2
CONTINUOUS
 70
0
  3
Solid line
 72
65
 73
0
 40
0.0
  0
LTYPE
  2
DOT
 70
0
  3
. . . . . . .
 72
65
 73
2
 40
0.25
 49
0.0
 49
-0.25
  0
LTYPE
  2
DASHED
 70
0
  3
__ __ __ __ __
 72
65
 73
2
 40
0.8
 49
0.5
 49
-0.3
  0
LTYPE
  2
DASHDOT
 70
0
  3
__ . __ . __ .
 72
65
 73
4
 40
1.0
 49
0.5
 49
-0.25
 49
0.0
 49
-0.25
  0
LTYPE
  2
DIVIDE
 70
0
  3
____ . . ____ . . 
 72
65
 73
6
 40
1.25
 49
0.5
 49
-0.25
 49
0.0
 49
-0.25
 49
0.0
 49
-0.25
  0
LTYPE
  2
BORDER
 70
0
  3
__ __ . __ __ . 
 72
65
 73
6
 40
1.75
 49
0.5
 49
-0.25
 49
0.5
 49
-0.25
 49
0.0
 49
-0.25
  0
LTYPE
  2
HIDDEN
 70
0
  3
__ __ __ __ __
 72
65
 73
2
 40
0.4
 49
0.25
 49
-0.25
  0
LTYPE
  2
CENTER
 70
0
  3
____ _ ____ _ __
 72
65
 73
4
 40
2.0
 49
1.25
 49
-0.25
 49
0.25
 49
-0.25
  0
ENDTAB
  0
TABLE
  2
LAYER
 70
1
  0
LAYER
  2
PYDXF
 70
64
 62
7
  6
continuous
  0
ENDTAB
  0
TABLE
  2
STYLE
 70
1
  0
STYLE
  2
STANDARD
 70
0
 40
0
 41
1.0
 50
0.0
 71
0
 42
1
 3
ARIAL.TTF
 4

  0
ENDTAB
  0
TABLE
  2
VIEW
 70
1
  0
VIEW
  2
BF_TOPVIEW
 70
0
 40
120.0
 10
0.0
 20
0.0
 41
200.0
 11
0.0
 21
0.0
 31
1.0
 12
0.0
 22
0.0
 32
0.0
 42
50.0
 43
0.0
 44
0.0
 50
0.0
 71
0
  0
ENDTAB
  0
ENDSEC
  0
SECTION
  2
BLOCKS
  0
ENDSEC
  0
SECTION
  2
ENTITIES
  0
3DFACE
  8
0
 10
0.24815905094146729
 20
-0.24794435501098633
 30
0.19004374742507935
 11
-0.24812009930610657
 21
-0.24794435501098633
 31
0.19004382193088531
 12
-0.24812009930610657
 22
0.24787276983261108
 32
0.19004395604133606
 13
0.24815905094146729
 23
0.24787276983261108
 33
0.1900438815355301
  0
3DFACE
  8
0
 10
0.24815905094146729
 20
-0.24794435501098633
 30
0.2100437432527542
 11
0.24815905094146729
 21
0.24787276983261108
 31
0.21004387736320496
 12
-0.24812009930610657
 22
0.24787276983261108
 32
0.21004395186901093
 13
-0.24812009930610657
 23
-0.24794435501098633
 33
0.21004381775856018
  0
3DFACE
  8
0
 10
0.25014442205429077
 20
-0.24992790818214417
 30
0.192043736577034
 11
0.25014442205429077
 21
-0.24992790818214417
 31
0.20804373919963837
 12
-0.25010550022125244
 22
-0.24992790818214417
 32
0.20804382860660553
 13
-0.25010550022125244
 23
-0.24992790818214417
 33
0.19204381108283997
  0
3DFACE
  8
0
 10
-0.25010550022125244
 20
0.24985629320144653
 30
0.1920439451932907
 11
-0.25010550022125244
 21
0.24985629320144653
 31
0.20804396271705627
 12
0.25014442205429077
 22
0.24985629320144653
 32
0.2080438733100891
 13
0.25014442205429077
 23
0.24985629320144653
 33
0.19204387068748474
  0
3DFACE
  8
0
 10
-0.25010550022125244
 20
-0.24992790818214417
 30
0.19204381108283997
 11
-0.25010550022125244
 21
-0.24992790818214417
 31
0.20804382860660553
 12
-0.25010550022125244
 22
0.24985629320144653
 32
0.20804396271705627
 13
-0.25010550022125244
 23
0.24985629320144653
 33
0.1920439451932907
  0
3DFACE
  8
0
 10
0.25014442205429077
 20
0.24985629320144653
 30
0.19204387068748474
 11
0.25014442205429077
 21
0.24985629320144653
 31
0.2080438733100891
 12
0.25014442205429077
 22
-0.24992790818214417
 32
0.20804373919963837
 13
0.25014442205429077
 23
-0.24992790818214417
 33
0.192043736577034
  0
3DFACE
  8
0
 10
-0.24812008440494537
 20
-0.24794435501098633
 30
0.340043842792511
 11
0.24815906584262848
 21
-0.24794435501098633
 31
0.340043842792511
 12
0.24815906584262848
 22
0.24787276983261108
 32
0.340043842792511
 13
-0.24812008440494537
 23
0.24787276983261108
 33
0.340043842792511
  0
3DFACE
  8
0
 10
-0.24812008440494537
 20
-0.24794435501098633
 30
0.3200438320636749
 11
-0.24812008440494537
 21
0.24787276983261108
 31
0.3200438320636749
 12
0.24815906584262848
 22
0.24787276983261108
 32
0.3200438618659973
 13
0.24815906584262848
 23
-0.24794435501098633
 33
0.3200438618659973
  0
3DFACE
  8
0
 10
-0.25010547041893005
 20
-0.24992787837982178
 30
0.33804383873939514
 11
-0.25010547041893005
 21
-0.24992787837982178
 31
0.32204383611679077
 12
0.25014442205429077
 22
-0.24992787837982178
 32
0.32204383611679077
 13
0.25014442205429077
 23
-0.24992787837982178
 33
0.33804383873939514
  0
3DFACE
  8
0
 10
0.25014442205429077
 20
0.24985632300376892
 30
0.33804383873939514
 11
0.25014442205429077
 21
0.24985632300376892
 31
0.32204383611679077
 12
-0.25010547041893005
 22
0.24985632300376892
 32
0.32204383611679077
 13
-0.25010547041893005
 23
0.24985632300376892
 33
0.33804383873939514
  0
3DFACE
  8
0
 10
0.25014442205429077
 20
-0.24992787837982178
 30
0.33804383873939514
 11
0.25014442205429077
 21
-0.24992787837982178
 31
0.32204383611679077
 12
0.25014442205429077
 22
0.24985632300376892
 32
0.32204383611679077
 13
0.25014442205429077
 23
0.24985632300376892
 33
0.33804383873939514
  0
3DFACE
  8
0
 10
-0.25010547041893005
 20
0.24985632300376892
 30
0.33804383873939514
 11
-0.25010547041893005
 21
0.24985632300376892
 31
0.32204383611679077
 12
-0.25010547041893005
 22
-0.24992787837982178
 32
0.32204383611679077
 13
-0.25010547041893005
 23
-0.24992787837982178
 33
0.33804383873939514
  0
3DFACE
  8
0
 10
0.25014442205429077
 20
-0.24992790818214417
 30
0.192043736577034
 11
-0.25010550022125244
 21
-0.24992790818214417
 31
0.19204381108283997
 12
-0.24812009930610657
 22
-0.24794435501098633
 32
0.19004382193088531
 13
0.24815905094146729
 23
-0.24794435501098633
 33
0.19004374742507935
  0
3DFACE
  8
0
 10
-0.25010550022125244
 20
0.24985629320144653
 30
0.1920439451932907
 11
0.25014442205429077
 21
0.24985629320144653
 31
0.19204387068748474
 12
0.24815905094146729
 22
0.24787276983261108
 32
0.1900438815355301
 13
-0.24812009930610657
 23
0.24787276983261108
 33
0.19004395604133606
  0
3DFACE
  8
0
 10
-0.24812009930610657
 20
0.24787276983261108
 30
0.19004395604133606
 11
-0.24812009930610657
 21
-0.24794435501098633
 31
0.19004382193088531
 12
-0.25010550022125244
 22
-0.24992790818214417
 32
0.19204381108283997
 13
-0.25010550022125244
 23
0.24985629320144653
 33
0.1920439451932907
  0
3DFACE
  8
0
 10
0.25014442205429077
 20
0.24985629320144653
 30
0.19204387068748474
 11
0.25014442205429077
 21
-0.24992790818214417
 31
0.192043736577034
 12
0.24815905094146729
 22
-0.24794435501098633
 32
0.19004374742507935
 13
0.24815905094146729
 23
0.24787276983261108
 33
0.1900438815355301
  0
3DFACE
  8
0
 10
-0.25010550022125244
 20
-0.24992790818214417
 30
0.20804382860660553
 11
0.25014442205429077
 21
-0.24992790818214417
 31
0.20804373919963837
 12
0.24815905094146729
 22
-0.24794435501098633
 32
0.2100437432527542
 13
-0.24812009930610657
 23
-0.24794435501098633
 33
0.21004381775856018
  0
3DFACE
  8
0
 10
0.25014442205429077
 20
0.24985629320144653
 30
0.2080438733100891
 11
-0.25010550022125244
 21
0.24985629320144653
 31
0.20804396271705627
 12
-0.24812009930610657
 22
0.24787276983261108
 32
0.21004395186901093
 13
0.24815905094146729
 23
0.24787276983261108
 33
0.21004387736320496
  0
3DFACE
  8
0
 10
-0.25010550022125244
 20
0.24985629320144653
 30
0.20804396271705627
 11
-0.25010550022125244
 21
-0.24992790818214417
 31
0.20804382860660553
 12
-0.24812009930610657
 22
-0.24794435501098633
 32
0.21004381775856018
 13
-0.24812009930610657
 23
0.24787276983261108
 33
0.21004395186901093
  0
3DFACE
  8
0
 10
0.25014442205429077
 20
-0.24992790818214417
 30
0.20804373919963837
 11
0.25014442205429077
 21
0.24985629320144653
 31
0.2080438733100891
 12
0.24815905094146729
 22
0.24787276983261108
 32
0.21004387736320496
 13
0.24815905094146729
 23
-0.24794435501098633
 33
0.2100437432527542
  0
3DFACE
  8
0
 10
-0.25010547041893005
 20
-0.24992787837982178
 30
0.33804383873939514
 11
0.25014442205429077
 21
-0.24992787837982178
 31
0.33804383873939514
 12
0.24815906584262848
 22
-0.24794435501098633
 32
0.340043842792511
 13
-0.24812008440494537
 23
-0.24794435501098633
 33
0.340043842792511
  0
3DFACE
  8
0
 10
0.25014442205429077
 20
0.24985632300376892
 30
0.33804383873939514
 11
-0.25010547041893005
 21
0.24985632300376892
 31
0.33804383873939514
 12
-0.24812008440494537
 22
0.24787276983261108
 32
0.340043842792511
 13
0.24815906584262848
 23
0.24787276983261108
 33
0.340043842792511
  0
3DFACE
  8
0
 10
0.25014442205429077
 20
-0.24992787837982178
 30
0.33804383873939514
 11
0.25014442205429077
 21
0.24985632300376892
 31
0.33804383873939514
 12
0.24815906584262848
 22
0.24787276983261108
 32
0.340043842792511
 13
0.24815906584262848
 23
-0.24794435501098633
 33
0.340043842792511
  0
3DFACE
  8
0
 10
-0.25010547041893005
 20
0.24985632300376892
 30
0.33804383873939514
 11
-0.25010547041893005
 21
-0.24992787837982178
 31
0.33804383873939514
 12
-0.24812008440494537
 22
-0.24794435501098633
 32
0.340043842792511
 13
-0.24812008440494537
 23
0.24787276983261108
 33
0.340043842792511
  0
3DFACE
  8
0
 10
0.25014442205429077
 20
-0.24992787837982178
 30
0.32204383611679077
 11
-0.25010547041893005
 21
-0.24992787837982178
 31
0.32204383611679077
 12
-0.24812008440494537
 22
-0.24794435501098633
 32
0.3200438320636749
 13
0.24815906584262848
 23
-0.24794435501098633
 33
0.3200438618659973
  0
3DFACE
  8
0
 10
-0.25010547041893005
 20
0.24985632300376892
 30
0.32204383611679077
 11
0.25014442205429077
 21
0.24985632300376892
 31
0.32204383611679077
 12
0.24815906584262848
 22
0.24787276983261108
 32
0.3200438618659973
 13
-0.24812008440494537
 23
0.24787276983261108
 33
0.3200438320636749
  0
3DFACE
  8
0
 10
0.25014442205429077
 20
0.24985632300376892
 30
0.32204383611679077
 11
0.25014442205429077
 21
-0.24992787837982178
 31
0.32204383611679077
 12
0.24815906584262848
 22
-0.24794435501098633
 32
0.3200438618659973
 13
0.24815906584262848
 23
0.24787276983261108
 33
0.3200438618659973
  0
3DFACE
  8
0
 10
-0.25010547041893005
 20
-0.24992787837982178
 30
0.32204383611679077
 11
-0.25010547041893005
 21
0.24985632300376892
 31
0.32204383611679077
 12
-0.24812008440494537
 22
0.24787276983261108
 32
0.3200438320636749
 13
-0.24812008440494537
 23
-0.24794435501098633
 33
0.3200438320636749
  0
3DFACE
  8
0
 10
0.2526559829711914
 20
0.23246212303638458
 30
0.31769323348999023
 11
0.23794129490852356
 21
0.23246212303638458
 31
0.31769323348999023
 12
0.23794129490852356
 22
0.23246212303638458
 32
0.21234388649463654
 13
0.2526559829711914
 23
0.23246212303638458
 33
0.21234388649463654
  0
3DFACE
  8
0
 10
0.300945520401001
 20
0.23446212708950043
 30
0.006666064262390137
 11
0.23594129085540771
 21
0.23446212708950043
 31
0.006666064262390137
 12
0.23831816017627716
 22
0.23683899641036987
 32
0.004732012748718262
 13
0.29856863617897034
 23
0.23683899641036987
 33
0.004732012748718262
  0
3DFACE
  8
0
 10
0.23794129490852356
 20
0.3014663755893707
 30
0.4546848237514496
 11
0.29894551634788513
 21
0.3014663755893707
 31
0.4546848237514496
 12
0.29894551634788513
 22
0.3014663755893707
 32
0.008666068315505981
 13
0.23794129490852356
 23
0.3014663755893707
 33
0.008666068315505981
  0
3DFACE
  8
0
 10
0.23394128680229187
 20
0.23646213114261627
 30
0.31769323348999023
 11
0.23394128680229187
 21
0.2524265646934509
 31
0.31769323348999023
 12
0.23394128680229187
 22
0.2524265646934509
 32
0.21234388649463654
 13
0.23394128680229187
 23
0.23646213114261627
 33
0.21234388649463654
  0
3DFACE
  8
0
 10
0.23394128680229187
 20
0.23646213114261627
 30
0.4546848237514496
 11
0.23394128680229187
 21
0.29746636748313904
 31
0.4546848237514496
 12
0.23394128680229187
 22
0.2524265646934509
 32
0.34227117896080017
 13
0.23394128680229187
 23
0.23646213114261627
 33
0.34227117896080017
  0
3DFACE
  8
0
 10
0.29894551634788513
 20
0.23246212303638458
 30
0.4546848237514496
 11
0.23794129490852356
 21
0.23246212303638458
 31
0.4546848237514496
 12
0.2526559829711914
 22
0.23246212303638458
 32
0.34227117896080017
 13
0.29894551634788513
 23
0.23246212303638458
 33
0.008666068315505981
  0
3DFACE
  8
0
 10
0.23831816017627716
 20
0.23683899641036987
 30
0.004732012748718262
 11
0.23831816017627716
 21
0.29708948731422424
 31
0.004732012748718262
 12
0.29856863617897034
 22
0.29708948731422424
 32
0.004732012748718262
 13
0.29856863617897034
 23
0.23683899641036987
 33
0.004732012748718262
  0
3DFACE
  8
0
 10
0.25065597891807556
 20
0.23446212708950043
 30
0.3196932375431061
 11
0.25065597891807556
 21
0.23446212708950043
 31
0.3402711749076843
 12
0.25065597891807556
 22
0.2504265606403351
 32
0.3402711749076843
 13
0.25065597891807556
 23
0.2504265606403351
 33
0.3196932375431061
  0
3DFACE
  8
0
 10
0.25065597891807556
 20
0.23446212708950043
 30
0.1897050142288208
 11
0.25065597891807556
 21
0.23446212708950043
 31
0.2103438824415207
 12
0.25065597891807556
 22
0.2504265606403351
 32
0.2103438824415207
 13
0.25065597891807556
 23
0.2504265606403351
 33
0.1897050142288208
  0
3DFACE
  8
0
 10
0.25065597891807556
 20
0.2504265606403351
 30
0.2103438824415207
 11
0.23594129085540771
 21
0.2504265606403351
 31
0.2103438824415207
 12
0.23594129085540771
 22
0.2504265606403351
 32
0.1897050142288208
 13
0.25065597891807556
 23
0.2504265606403351
 33
0.1897050142288208
  0
3DFACE
  8
0
 10
0.25065597891807556
 20
0.2504265606403351
 30
0.3402711749076843
 11
0.23594129085540771
 21
0.2504265606403351
 31
0.3402711749076843
 12
0.23594129085540771
 22
0.2504265606403351
 32
0.3196932375431061
 13
0.25065597891807556
 23
0.2504265606403351
 33
0.3196932375431061
  0
3DFACE
  8
0
 10
0.25065597891807556
 20
0.2504265606403351
 30
0.3196932375431061
 11
0.23594129085540771
 21
0.2504265606403351
 31
0.3196932375431061
 12
0.23594129085540771
 22
0.23446212708950043
 32
0.3196932375431061
 13
0.25065597891807556
 23
0.23446212708950043
 33
0.3196932375431061
  0
3DFACE
  8
0
 10
0.25065597891807556
 20
0.2504265606403351
 30
0.1897050142288208
 11
0.23594129085540771
 21
0.2504265606403351
 31
0.1897050142288208
 12
0.23594129085540771
 22
0.23446212708950043
 32
0.1897050142288208
 13
0.25065597891807556
 23
0.23446212708950043
 33
0.1897050142288208
  0
3DFACE
  8
0
 10
0.23594129085540771
 20
0.2504265606403351
 30
0.2103438824415207
 11
0.25065597891807556
 21
0.2504265606403351
 31
0.2103438824415207
 12
0.25065597891807556
 22
0.23446212708950043
 32
0.2103438824415207
 13
0.23594129085540771
 23
0.23446212708950043
 33
0.2103438824415207
  0
3DFACE
  8
0
 10
0.23594129085540771
 20
0.2504265606403351
 30
0.3402711749076843
 11
0.25065597891807556
 21
0.2504265606403351
 31
0.3402711749076843
 12
0.25065597891807556
 22
0.23446212708950043
 32
0.3402711749076843
 13
0.23594129085540771
 23
0.23446212708950043
 33
0.3402711749076843
  0
3DFACE
  8
0
 10
0.23794129490852356
 20
0.23246212303638458
 30
0.4546848237514496
 11
0.23794129490852356
 21
0.23246212303638458
 31
0.34227117896080017
 12
0.2526559829711914
 22
0.23246212303638458
 32
0.34227117896080017
 13
0.2526559829711914
 23
0.23246212303638458
 33
0.34227117896080017
  0
3DFACE
  8
0
 10
0.23394128680229187
 20
0.23646213114261627
 30
0.18770501017570496
 11
0.23394128680229187
 21
0.2524265646934509
 31
0.18770501017570496
 12
0.23394128680229187
 22
0.23646213114261627
 32
0.008666068315505981
 13
0.23394128680229187
 23
0.23646213114261627
 33
0.008666068315505981
  0
3DFACE
  8
0
 10
0.29894551634788513
 20
0.23246212303638458
 30
0.008666068315505981
 11
0.2526559829711914
 21
0.23246212303638458
 31
0.31769323348999023
 12
0.2526559829711914
 22
0.23246212303638458
 32
0.21234388649463654
 13
0.2526559829711914
 23
0.23246212303638458
 33
0.21234388649463654
  0
3DFACE
  8
0
 10
0.2526559829711914
 20
0.23246212303638458
 30
0.18770501017570496
 11
0.23794129490852356
 21
0.23246212303638458
 31
0.18770501017570496
 12
0.23794129490852356
 22
0.23246212303638458
 32
0.008666068315505981
 13
0.23794129490852356
 23
0.23246212303638458
 33
0.008666068315505981
  0
3DFACE
  8
0
 10
0.29894551634788513
 20
0.23246212303638458
 30
0.008666068315505981
 11
0.2526559829711914
 21
0.23246212303638458
 31
0.21234388649463654
 12
0.2526559829711914
 22
0.23246212303638458
 32
0.18770501017570496
 13
0.2526559829711914
 23
0.23246212303638458
 33
0.18770501017570496
  0
3DFACE
  8
0
 10
0.29894551634788513
 20
0.23246212303638458
 30
0.008666068315505981
 11
0.2526559829711914
 21
0.23246212303638458
 31
0.34227117896080017
 12
0.2526559829711914
 22
0.23246212303638458
 32
0.31769323348999023
 13
0.2526559829711914
 23
0.23246212303638458
 33
0.31769323348999023
  0
3DFACE
  8
0
 10
0.23794129490852356
 20
0.23246212303638458
 30
0.34227117896080017
 11
0.23794129490852356
 21
0.23246212303638458
 31
0.4546848237514496
 12
0.23594129085540771
 22
0.23446212708950043
 32
0.45668482780456543
 13
0.23594129085540771
 23
0.23446212708950043
 33
0.3402711749076843
  0
3DFACE
  8
0
 10
0.23794129490852356
 20
0.23246212303638458
 30
0.008666068315505981
 11
0.23794129490852356
 21
0.23246212303638458
 31
0.18770501017570496
 12
0.23594129085540771
 22
0.23446212708950043
 32
0.1897050142288208
 13
0.23594129085540771
 23
0.23446212708950043
 33
0.006666064262390137
  0
3DFACE
  8
0
 10
0.23794129490852356
 20
0.23246212303638458
 30
0.21234388649463654
 11
0.23794129490852356
 21
0.23246212303638458
 31
0.31769323348999023
 12
0.23594129085540771
 22
0.23446212708950043
 32
0.3196932375431061
 13
0.23594129085540771
 23
0.23446212708950043
 33
0.2103438824415207
  0
3DFACE
  8
0
 10
0.2526559829711914
 20
0.23246212303638458
 30
0.21234388649463654
 11
0.23794129490852356
 21
0.23246212303638458
 31
0.21234388649463654
 12
0.23594129085540771
 22
0.23446212708950043
 32
0.2103438824415207
 13
0.25065597891807556
 23
0.23446212708950043
 33
0.2103438824415207
  0
3DFACE
  8
0
 10
0.23794129490852356
 20
0.23246212303638458
 30
0.18770501017570496
 11
0.2526559829711914
 21
0.23246212303638458
 31
0.18770501017570496
 12
0.25065597891807556
 22
0.23446212708950043
 32
0.1897050142288208
 13
0.23594129085540771
 23
0.23446212708950043
 33
0.1897050142288208
  0
3DFACE
  8
0
 10
0.2526559829711914
 20
0.23246212303638458
 30
0.34227117896080017
 11
0.23794129490852356
 21
0.23246212303638458
 31
0.34227117896080017
 12
0.23594129085540771
 22
0.23446212708950043
 32
0.3402711749076843
 13
0.25065597891807556
 23
0.23446212708950043
 33
0.3402711749076843
  0
3DFACE
  8
0
 10
0.23794129490852356
 20
0.23246212303638458
 30
0.31769323348999023
 11
0.2526559829711914
 21
0.23246212303638458
 31
0.31769323348999023
 12
0.25065597891807556
 22
0.23446212708950043
 32
0.3196932375431061
 13
0.23594129085540771
 23
0.23446212708950043
 33
0.3196932375431061
  0
3DFACE
  8
0
 10
0.2526559829711914
 20
0.23246212303638458
 30
0.18770501017570496
 11
0.2526559829711914
 21
0.23246212303638458
 31
0.21234388649463654
 12
0.25065597891807556
 22
0.23446212708950043
 32
0.2103438824415207
 13
0.25065597891807556
 23
0.23446212708950043
 33
0.1897050142288208
  0
3DFACE
  8
0
 10
0.23794129490852356
 20
0.23246212303638458
 30
0.4546848237514496
 11
0.29894551634788513
 21
0.23246212303638458
 31
0.4546848237514496
 12
0.300945520401001
 22
0.23446212708950043
 32
0.45668482780456543
 13
0.23594129085540771
 23
0.23446212708950043
 33
0.45668482780456543
  0
3DFACE
  8
0
 10
0.2526559829711914
 20
0.23246212303638458
 30
0.31769323348999023
 11
0.2526559829711914
 21
0.23246212303638458
 31
0.34227117896080017
 12
0.25065597891807556
 22
0.23446212708950043
 32
0.3402711749076843
 13
0.25065597891807556
 23
0.23446212708950043
 33
0.3196932375431061
  0
3DFACE
  8
0
 10
0.3029455244541168
 20
0.29746636748313904
 30
0.4546848237514496
 11
0.3029455244541168
 21
0.29746636748313904
 31
0.008666068315505981
 12
0.300945520401001
 22
0.2994663715362549
 32
0.006666064262390137
 13
0.300945520401001
 23
0.2994663715362549
 33
0.45668482780456543
  0
3DFACE
  8
0
 10
0.3029455244541168
 20
0.23646213114261627
 30
0.4546848237514496
 11
0.3029455244541168
 21
0.29746636748313904
 31
0.4546848237514496
 12
0.300945520401001
 22
0.2994663715362549
 32
0.45668482780456543
 13
0.300945520401001
 23
0.23446212708950043
 33
0.45668482780456543
  0
3DFACE
  8
0
 10
0.29894551634788513
 20
0.3014663755893707
 30
0.008666068315505981
 11
0.29894551634788513
 21
0.3014663755893707
 31
0.4546848237514496
 12
0.300945520401001
 22
0.2994663715362549
 32
0.45668482780456543
 13
0.300945520401001
 23
0.2994663715362549
 33
0.006666064262390137
  0
3DFACE
  8
0
 10
0.23794129490852356
 20
0.3014663755893707
 30
0.4546848237514496
 11
0.23794129490852356
 21
0.3014663755893707
 31
0.008666068315505981
 12
0.23594129085540771
 22
0.2994663715362549
 32
0.006666064262390137
 13
0.23594129085540771
 23
0.2994663715362549
 33
0.45668482780456543
  0
3DFACE
  8
0
 10
0.29894551634788513
 20
0.3014663755893707
 30
0.4546848237514496
 11
0.23794129490852356
 21
0.3014663755893707
 31
0.4546848237514496
 12
0.23594129085540771
 22
0.2994663715362549
 32
0.45668482780456543
 13
0.300945520401001
 23
0.2994663715362549
 33
0.45668482780456543
  0
3DFACE
  8
0
 10
0.23394128680229187
 20
0.23646213114261627
 30
0.4546848237514496
 11
0.23394128680229187
 21
0.23646213114261627
 31
0.34227117896080017
 12
0.23594129085540771
 22
0.23446212708950043
 32
0.3402711749076843
 13
0.23594129085540771
 23
0.23446212708950043
 33
0.45668482780456543
  0
3DFACE
  8
0
 10
0.23394128680229187
 20
0.23646213114261627
 30
0.18770501017570496
 11
0.23394128680229187
 21
0.23646213114261627
 31
0.008666068315505981
 12
0.23594129085540771
 22
0.23446212708950043
 32
0.006666064262390137
 13
0.23594129085540771
 23
0.23446212708950043
 33
0.1897050142288208
  0
3DFACE
  8
0
 10
0.23394128680229187
 20
0.23646213114261627
 30
0.21234388649463654
 11
0.23394128680229187
 21
0.2524265646934509
 31
0.21234388649463654
 12
0.23594129085540771
 22
0.2504265606403351
 32
0.2103438824415207
 13
0.23594129085540771
 23
0.23446212708950043
 33
0.2103438824415207
  0
3DFACE
  8
0
 10
0.23394128680229187
 20
0.2524265646934509
 30
0.18770501017570496
 11
0.23394128680229187
 21
0.23646213114261627
 31
0.18770501017570496
 12
0.23594129085540771
 22
0.23446212708950043
 32
0.1897050142288208
 13
0.23594129085540771
 23
0.2504265606403351
 33
0.1897050142288208
  0
3DFACE
  8
0
 10
0.23394128680229187
 20
0.23646213114261627
 30
0.31769323348999023
 11
0.23394128680229187
 21
0.23646213114261627
 31
0.21234388649463654
 12
0.23594129085540771
 22
0.23446212708950043
 32
0.2103438824415207
 13
0.23594129085540771
 23
0.23446212708950043
 33
0.3196932375431061
  0
3DFACE
  8
0
 10
0.23394128680229187
 20
0.23646213114261627
 30
0.34227117896080017
 11
0.23394128680229187
 21
0.2524265646934509
 31
0.34227117896080017
 12
0.23594129085540771
 22
0.2504265606403351
 32
0.3402711749076843
 13
0.23594129085540771
 23
0.23446212708950043
 33
0.3402711749076843
  0
3DFACE
  8
0
 10
0.23394128680229187
 20
0.2524265646934509
 30
0.31769323348999023
 11
0.23394128680229187
 21
0.23646213114261627
 31
0.31769323348999023
 12
0.23594129085540771
 22
0.23446212708950043
 32
0.3196932375431061
 13
0.23594129085540771
 23
0.2504265606403351
 33
0.3196932375431061
  0
3DFACE
  8
0
 10
0.23394128680229187
 20
0.29746636748313904
 30
0.4546848237514496
 11
0.23394128680229187
 21
0.23646213114261627
 31
0.4546848237514496
 12
0.23594129085540771
 22
0.23446212708950043
 32
0.45668482780456543
 13
0.23594129085540771
 23
0.2994663715362549
 33
0.45668482780456543
  0
3DFACE
  8
0
 10
0.23394128680229187
 20
0.2524265646934509
 30
0.21234388649463654
 11
0.23394128680229187
 21
0.2524265646934509
 31
0.18770501017570496
 12
0.23594129085540771
 22
0.2504265606403351
 32
0.1897050142288208
 13
0.23594129085540771
 23
0.2504265606403351
 33
0.2103438824415207
  0
3DFACE
  8
0
 10
0.23394128680229187
 20
0.2524265646934509
 30
0.34227117896080017
 11
0.23394128680229187
 21
0.2524265646934509
 31
0.31769323348999023
 12
0.23594129085540771
 22
0.2504265606403351
 32
0.3196932375431061
 13
0.23594129085540771
 23
0.2504265606403351
 33
0.3402711749076843
  0
3DFACE
  8
0
 10
-0.2526170611381531
 20
0.23246212303638458
 30
0.31769323348999023
 11
-0.2526170611381531
 21
0.23246212303638458
 31
0.21234388649463654
 12
-0.23790234327316284
 22
0.23246212303638458
 32
0.21234388649463654
 13
-0.23790234327316284
 23
0.23246212303638458
 33
0.31769323348999023
  0
3DFACE
  8
0
 10
-0.30090659856796265
 20
0.23446212708950043
 30
0.006666064262390137
 11
-0.298529714345932
 21
0.23683899641036987
 31
0.004732012748718262
 12
-0.23827920854091644
 22
0.23683899641036987
 32
0.004732012748718262
 13
-0.235902339220047
 23
0.23446212708950043
 33
0.006666064262390137
  0
3DFACE
  8
0
 10
-0.23390233516693115
 20
0.23646213114261627
 30
0.31769323348999023
 11
-0.23390233516693115
 21
0.23646213114261627
 31
0.21234388649463654
 12
-0.23390233516693115
 22
0.2524265646934509
 32
0.21234388649463654
 13
-0.23390233516693115
 23
0.2524265646934509
 33
0.31769323348999023
  0
3DFACE
  8
0
 10
-0.23390233516693115
 20
0.23646213114261627
 30
0.4546848237514496
 11
-0.23390233516693115
 21
0.23646213114261627
 31
0.34227117896080017
 12
-0.23390233516693115
 22
0.2524265646934509
 32
0.34227117896080017
 13
-0.23390233516693115
 23
0.29746636748313904
 33
0.4546848237514496
  0
3DFACE
  8
0
 10
-0.23827920854091644
 20
0.23683899641036987
 30
0.004732012748718262
 11
-0.298529714345932
 21
0.23683899641036987
 31
0.004732012748718262
 12
-0.298529714345932
 22
0.29708948731422424
 32
0.004732012748718262
 13
-0.23827920854091644
 23
0.29708948731422424
 33
0.004732012748718262
  0
3DFACE
  8
0
 10
-0.25061705708503723
 20
0.23446212708950043
 30
0.3196932375431061
 11
-0.25061705708503723
 21
0.2504265606403351
 31
0.3196932375431061
 12
-0.25061705708503723
 22
0.2504265606403351
 32
0.3402711749076843
 13
-0.25061705708503723
 23
0.23446212708950043
 33
0.3402711749076843
  0
3DFACE
  8
0
 10
-0.25061705708503723
 20
0.23446212708950043
 30
0.1897050142288208
 11
-0.25061705708503723
 21
0.2504265606403351
 31
0.1897050142288208
 12
-0.25061705708503723
 22
0.2504265606403351
 32
0.2103438824415207
 13
-0.25061705708503723
 23
0.23446212708950043
 33
0.2103438824415207
  0
3DFACE
  8
0
 10
-0.25061705708503723
 20
0.2504265606403351
 30
0.2103438824415207
 11
-0.25061705708503723
 21
0.2504265606403351
 31
0.1897050142288208
 12
-0.235902339220047
 22
0.2504265606403351
 32
0.1897050142288208
 13
-0.235902339220047
 23
0.2504265606403351
 33
0.2103438824415207
  0
3DFACE
  8
0
 10
-0.25061705708503723
 20
0.2504265606403351
 30
0.3402711749076843
 11
-0.25061705708503723
 21
0.2504265606403351
 31
0.3196932375431061
 12
-0.235902339220047
 22
0.2504265606403351
 32
0.3196932375431061
 13
-0.235902339220047
 23
0.2504265606403351
 33
0.3402711749076843
  0
3DFACE
  8
0
 10
-0.25061705708503723
 20
0.2504265606403351
 30
0.3196932375431061
 11
-0.25061705708503723
 21
0.23446212708950043
 31
0.3196932375431061
 12
-0.235902339220047
 22
0.23446212708950043
 32
0.3196932375431061
 13
-0.235902339220047
 23
0.2504265606403351
 33
0.3196932375431061
  0
3DFACE
  8
0
 10
-0.25061705708503723
 20
0.2504265606403351
 30
0.1897050142288208
 11
-0.25061705708503723
 21
0.23446212708950043
 31
0.1897050142288208
 12
-0.235902339220047
 22
0.23446212708950043
 32
0.1897050142288208
 13
-0.235902339220047
 23
0.2504265606403351
 33
0.1897050142288208
  0
3DFACE
  8
0
 10
-0.235902339220047
 20
0.2504265606403351
 30
0.2103438824415207
 11
-0.235902339220047
 21
0.23446212708950043
 31
0.2103438824415207
 12
-0.25061705708503723
 22
0.23446212708950043
 32
0.2103438824415207
 13
-0.25061705708503723
 23
0.2504265606403351
 33
0.2103438824415207
  0
3DFACE
  8
0
 10
-0.235902339220047
 20
0.2504265606403351
 30
0.3402711749076843
 11
-0.235902339220047
 21
0.23446212708950043
 31
0.3402711749076843
 12
-0.25061705708503723
 22
0.23446212708950043
 32
0.3402711749076843
 13
-0.25061705708503723
 23
0.2504265606403351
 33
0.3402711749076843
  0
3DFACE
  8
0
 10
-0.23790234327316284
 20
0.23246212303638458
 30
0.4546848237514496
 11
-0.2526170611381531
 21
0.23246212303638458
 31
0.34227117896080017
 12
-0.23790234327316284
 22
0.23246212303638458
 32
0.34227117896080017
 13
-0.23790234327316284
 23
0.23246212303638458
 33
0.34227117896080017
  0
3DFACE
  8
0
 10
-0.23390233516693115
 20
0.23646213114261627
 30
0.18770501017570496
 11
-0.23390233516693115
 21
0.23646213114261627
 31
0.008666068315505981
 12
-0.23390233516693115
 22
0.2524265646934509
 32
0.18770501017570496
 13
-0.23390233516693115
 23
0.2524265646934509
 33
0.18770501017570496
  0
3DFACE
  8
0
 10
-0.2526170611381531
 20
0.23246212303638458
 30
0.18770501017570496
 11
-0.23790234327316284
 21
0.23246212303638458
 31
0.008666068315505981
 12
-0.23790234327316284
 22
0.23246212303638458
 32
0.18770501017570496
 13
-0.23790234327316284
 23
0.23246212303638458
 33
0.18770501017570496
  0
3DFACE
  8
0
 10
-0.30090659856796265
 20
0.2994663715362549
 30
0.006666064262390137
 11
-0.298529714345932
 21
0.29708948731422424
 31
0.004732012748718262
 12
-0.298529714345932
 22
0.23683899641036987
 32
0.004732012748718262
 13
-0.30090659856796265
 23
0.23446212708950043
 33
0.006666064262390137
  0
3DFACE
  8
0
 10
-0.23790234327316284
 20
0.23246212303638458
 30
0.34227117896080017
 11
-0.235902339220047
 21
0.23446212708950043
 31
0.3402711749076843
 12
-0.235902339220047
 22
0.23446212708950043
 32
0.45668482780456543
 13
-0.23790234327316284
 23
0.23246212303638458
 33
0.4546848237514496
  0
3DFACE
  8
0
 10
-0.23790234327316284
 20
0.23246212303638458
 30
0.008666068315505981
 11
-0.235902339220047
 21
0.23446212708950043
 31
0.006666064262390137
 12
-0.235902339220047
 22
0.23446212708950043
 32
0.1897050142288208
 13
-0.23790234327316284
 23
0.23246212303638458
 33
0.18770501017570496
  0
3DFACE
  8
0
 10
-0.23790234327316284
 20
0.23246212303638458
 30
0.21234388649463654
 11
-0.235902339220047
 21
0.23446212708950043
 31
0.2103438824415207
 12
-0.235902339220047
 22
0.23446212708950043
 32
0.3196932375431061
 13
-0.23790234327316284
 23
0.23246212303638458
 33
0.31769323348999023
  0
3DFACE
  8
0
 10
-0.2526170611381531
 20
0.23246212303638458
 30
0.21234388649463654
 11
-0.25061705708503723
 21
0.23446212708950043
 31
0.2103438824415207
 12
-0.235902339220047
 22
0.23446212708950043
 32
0.2103438824415207
 13
-0.23790234327316284
 23
0.23246212303638458
 33
0.21234388649463654
  0
3DFACE
  8
0
 10
-0.23790234327316284
 20
0.23246212303638458
 30
0.18770501017570496
 11
-0.235902339220047
 21
0.23446212708950043
 31
0.1897050142288208
 12
-0.25061705708503723
 22
0.23446212708950043
 32
0.1897050142288208
 13
-0.2526170611381531
 23
0.23246212303638458
 33
0.18770501017570496
  0
3DFACE
  8
0
 10
-0.2526170611381531
 20
0.23246212303638458
 30
0.34227117896080017
 11
-0.25061705708503723
 21
0.23446212708950043
 31
0.3402711749076843
 12
-0.235902339220047
 22
0.23446212708950043
 32
0.3402711749076843
 13
-0.23790234327316284
 23
0.23246212303638458
 33
0.34227117896080017
  0
3DFACE
  8
0
 10
-0.23790234327316284
 20
0.23246212303638458
 30
0.31769323348999023
 11
-0.235902339220047
 21
0.23446212708950043
 31
0.3196932375431061
 12
-0.25061705708503723
 22
0.23446212708950043
 32
0.3196932375431061
 13
-0.2526170611381531
 23
0.23246212303638458
 33
0.31769323348999023
  0
3DFACE
  8
0
 10
-0.2526170611381531
 20
0.23246212303638458
 30
0.18770501017570496
 11
-0.25061705708503723
 21
0.23446212708950043
 31
0.1897050142288208
 12
-0.25061705708503723
 22
0.23446212708950043
 32
0.2103438824415207
 13
-0.2526170611381531
 23
0.23246212303638458
 33
0.21234388649463654
  0
3DFACE
  8
0
 10
-0.23790234327316284
 20
0.23246212303638458
 30
0.4546848237514496
 11
-0.235902339220047
 21
0.23446212708950043
 31
0.45668482780456543
 12
-0.30090659856796265
 22
0.23446212708950043
 32
0.45668482780456543
 13
-0.2989065945148468
 23
0.23246212303638458
 33
0.4546848237514496
  0
3DFACE
  8
0
 10
-0.2526170611381531
 20
0.23246212303638458
 30
0.31769323348999023
 11
-0.25061705708503723
 21
0.23446212708950043
 31
0.3196932375431061
 12
-0.25061705708503723
 22
0.23446212708950043
 32
0.3402711749076843
 13
-0.2526170611381531
 23
0.23246212303638458
 33
0.34227117896080017
  0
3DFACE
  8
0
 10
-0.2989065945148468
 20
0.23246212303638458
 30
0.008666068315505981
 11
-0.30090659856796265
 21
0.23446212708950043
 31
0.006666064262390137
 12
-0.235902339220047
 22
0.23446212708950043
 32
0.006666064262390137
 13
-0.23790234327316284
 23
0.23246212303638458
 33
0.008666068315505981
  0
3DFACE
  8
0
 10
-0.3029066026210785
 20
0.23646213114261627
 30
0.4546848237514496
 11
-0.30090659856796265
 21
0.23446212708950043
 31
0.45668482780456543
 12
-0.30090659856796265
 22
0.2994663715362549
 32
0.45668482780456543
 13
-0.3029066026210785
 23
0.29746636748313904
 33
0.4546848237514496
  0
3DFACE
  8
0
 10
-0.2989065945148468
 20
0.3014663755893707
 30
0.4546848237514496
 11
-0.30090659856796265
 21
0.2994663715362549
 31
0.45668482780456543
 12
-0.235902339220047
 22
0.2994663715362549
 32
0.45668482780456543
 13
-0.23790234327316284
 23
0.3014663755893707
 33
0.4546848237514496
  0
3DFACE
  8
0
 10
-0.23390233516693115
 20
0.23646213114261627
 30
0.4546848237514496
 11
-0.235902339220047
 21
0.23446212708950043
 31
0.45668482780456543
 12
-0.235902339220047
 22
0.23446212708950043
 32
0.3402711749076843
 13
-0.23390233516693115
 23
0.23646213114261627
 33
0.34227117896080017
  0
3DFACE
  8
0
 10
-0.23390233516693115
 20
0.23646213114261627
 30
0.18770501017570496
 11
-0.235902339220047
 21
0.23446212708950043
 31
0.1897050142288208
 12
-0.235902339220047
 22
0.23446212708950043
 32
0.006666064262390137
 13
-0.23390233516693115
 23
0.23646213114261627
 33
0.008666068315505981
  0
3DFACE
  8
0
 10
-0.23390233516693115
 20
0.23646213114261627
 30
0.21234388649463654
 11
-0.235902339220047
 21
0.23446212708950043
 31
0.2103438824415207
 12
-0.235902339220047
 22
0.2504265606403351
 32
0.2103438824415207
 13
-0.23390233516693115
 23
0.2524265646934509
 33
0.21234388649463654
  0
3DFACE
  8
0
 10
-0.23390233516693115
 20
0.2524265646934509
 30
0.18770501017570496
 11
-0.235902339220047
 21
0.2504265606403351
 31
0.1897050142288208
 12
-0.235902339220047
 22
0.23446212708950043
 32
0.1897050142288208
 13
-0.23390233516693115
 23
0.23646213114261627
 33
0.18770501017570496
  0
3DFACE
  8
0
 10
-0.23390233516693115
 20
0.23646213114261627
 30
0.31769323348999023
 11
-0.235902339220047
 21
0.23446212708950043
 31
0.3196932375431061
 12
-0.235902339220047
 22
0.23446212708950043
 32
0.2103438824415207
 13
-0.23390233516693115
 23
0.23646213114261627
 33
0.21234388649463654
  0
3DFACE
  8
0
 10
-0.23390233516693115
 20
0.23646213114261627
 30
0.34227117896080017
 11
-0.235902339220047
 21
0.23446212708950043
 31
0.3402711749076843
 12
-0.235902339220047
 22
0.2504265606403351
 32
0.3402711749076843
 13
-0.23390233516693115
 23
0.2524265646934509
 33
0.34227117896080017
  0
3DFACE
  8
0
 10
-0.23390233516693115
 20
0.2524265646934509
 30
0.31769323348999023
 11
-0.235902339220047
 21
0.2504265606403351
 31
0.3196932375431061
 12
-0.235902339220047
 22
0.23446212708950043
 32
0.3196932375431061
 13
-0.23390233516693115
 23
0.23646213114261627
 33
0.31769323348999023
  0
3DFACE
  8
0
 10
-0.23390233516693115
 20
0.29746636748313904
 30
0.4546848237514496
 11
-0.235902339220047
 21
0.2994663715362549
 31
0.45668482780456543
 12
-0.235902339220047
 22
0.23446212708950043
 32
0.45668482780456543
 13
-0.23390233516693115
 23
0.23646213114261627
 33
0.4546848237514496
  0
3DFACE
  8
0
 10
-0.23390233516693115
 20
0.2524265646934509
 30
0.21234388649463654
 11
-0.235902339220047
 21
0.2504265606403351
 31
0.2103438824415207
 12
-0.235902339220047
 22
0.2504265606403351
 32
0.1897050142288208
 13
-0.23390233516693115
 23
0.2524265646934509
 33
0.18770501017570496
  0
3DFACE
  8
0
 10
-0.23390233516693115
 20
0.2524265646934509
 30
0.34227117896080017
 11
-0.235902339220047
 21
0.2504265606403351
 31
0.3402711749076843
 12
-0.235902339220047
 22
0.2504265606403351
 32
0.3196932375431061
 13
-0.23390233516693115
 23
0.2524265646934509
 33
0.31769323348999023
  0
3DFACE
  8
0
 10
0.2526559829711914
 20
-0.23253370821475983
 30
0.31769323348999023
 11
0.2526559829711914
 21
-0.23253370821475983
 31
0.21234388649463654
 12
0.23794129490852356
 22
-0.23253370821475983
 32
0.21234388649463654
 13
0.23794129490852356
 23
-0.23253370821475983
 33
0.31769323348999023
  0
3DFACE
  8
0
 10
0.23594129085540771
 20
-0.2995379567146301
 30
0.006666064262390137
 11
0.23831816017627716
 21
-0.2971610724925995
 31
0.004732012748718262
 12
0.29856863617897034
 22
-0.2971610724925995
 32
0.004732012748718262
 13
0.300945520401001
 23
-0.2995379567146301
 33
0.006666064262390137
  0
3DFACE
  8
0
 10
0.23394128680229187
 20
-0.23653371632099152
 30
0.31769323348999023
 11
0.23394128680229187
 21
-0.23653371632099152
 31
0.21234388649463654
 12
0.23394128680229187
 22
-0.25249814987182617
 32
0.21234388649463654
 13
0.23394128680229187
 23
-0.25249814987182617
 33
0.31769323348999023
  0
3DFACE
  8
0
 10
0.23394128680229187
 20
-0.23653371632099152
 30
0.4546848237514496
 11
0.23394128680229187
 21
-0.23653371632099152
 31
0.34227117896080017
 12
0.23394128680229187
 22
-0.25249814987182617
 32
0.34227117896080017
 13
0.23394128680229187
 23
-0.2975379526615143
 33
0.4546848237514496
  0
3DFACE
  8
0
 10
0.3029455244541168
 20
-0.2975379526615143
 30
0.4546848237514496
 11
0.3029455244541168
 21
-0.2975379526615143
 31
0.008666068315505981
 12
0.3029455244541168
 22
-0.23653371632099152
 32
0.008666068315505981
 13
0.3029455244541168
 23
-0.23653371632099152
 33
0.4546848237514496
  0
3DFACE
  8
0
 10
0.29894551634788513
 20
-0.23253370821475983
 30
0.4546848237514496
 11
0.29894551634788513
 21
-0.23253370821475983
 31
0.008666068315505981
 12
0.2526559829711914
 22
-0.23253370821475983
 32
0.34227117896080017
 13
0.23794129490852356
 23
-0.23253370821475983
 33
0.4546848237514496
  0
3DFACE
  8
0
 10
0.23394128680229187
 20
-0.2975379526615143
 30
0.4546848237514496
 11
0.23394128680229187
 21
-0.25249814987182617
 31
0.34227117896080017
 12
0.23394128680229187
 22
-0.2975379526615143
 32
0.008666068315505981
 13
0.23394128680229187
 23
-0.2975379526615143
 33
0.008666068315505981
  0
3DFACE
  8
0
 10
0.23831816017627716
 20
-0.23691058158874512
 30
0.004732012748718262
 11
0.29856863617897034
 21
-0.23691058158874512
 31
0.004732012748718262
 12
0.29856863617897034
 22
-0.2971610724925995
 32
0.004732012748718262
 13
0.23831816017627716
 23
-0.2971610724925995
 33
0.004732012748718262
  0
3DFACE
  8
0
 10
0.25065597891807556
 20
-0.23453371226787567
 30
0.3196932375431061
 11
0.25065597891807556
 21
-0.2504981458187103
 31
0.3196932375431061
 12
0.25065597891807556
 22
-0.2504981458187103
 32
0.3402711749076843
 13
0.25065597891807556
 23
-0.23453371226787567
 33
0.3402711749076843
  0
3DFACE
  8
0
 10
0.25065597891807556
 20
-0.23453371226787567
 30
0.1897050142288208
 11
0.25065597891807556
 21
-0.2504981458187103
 31
0.1897050142288208
 12
0.25065597891807556
 22
-0.2504981458187103
 32
0.2103438824415207
 13
0.25065597891807556
 23
-0.23453371226787567
 33
0.2103438824415207
  0
3DFACE
  8
0
 10
0.25065597891807556
 20
-0.2504981458187103
 30
0.2103438824415207
 11
0.25065597891807556
 21
-0.2504981458187103
 31
0.1897050142288208
 12
0.23594129085540771
 22
-0.2504981458187103
 32
0.1897050142288208
 13
0.23594129085540771
 23
-0.2504981458187103
 33
0.2103438824415207
  0
3DFACE
  8
0
 10
0.25065597891807556
 20
-0.2504981458187103
 30
0.3402711749076843
 11
0.25065597891807556
 21
-0.2504981458187103
 31
0.3196932375431061
 12
0.23594129085540771
 22
-0.2504981458187103
 32
0.3196932375431061
 13
0.23594129085540771
 23
-0.2504981458187103
 33
0.3402711749076843
  0
3DFACE
  8
0
 10
0.25065597891807556
 20
-0.2504981458187103
 30
0.3196932375431061
 11
0.25065597891807556
 21
-0.23453371226787567
 31
0.3196932375431061
 12
0.23594129085540771
 22
-0.23453371226787567
 32
0.3196932375431061
 13
0.23594129085540771
 23
-0.2504981458187103
 33
0.3196932375431061
  0
3DFACE
  8
0
 10
0.25065597891807556
 20
-0.2504981458187103
 30
0.1897050142288208
 11
0.25065597891807556
 21
-0.23453371226787567
 31
0.1897050142288208
 12
0.23594129085540771
 22
-0.23453371226787567
 32
0.1897050142288208
 13
0.23594129085540771
 23
-0.2504981458187103
 33
0.1897050142288208
  0
3DFACE
  8
0
 10
0.23594129085540771
 20
-0.2504981458187103
 30
0.2103438824415207
 11
0.23594129085540771
 21
-0.23453371226787567
 31
0.2103438824415207
 12
0.25065597891807556
 22
-0.23453371226787567
 32
0.2103438824415207
 13
0.25065597891807556
 23
-0.2504981458187103
 33
0.2103438824415207
  0
3DFACE
  8
0
 10
0.23594129085540771
 20
-0.2504981458187103
 30
0.3402711749076843
 11
0.23594129085540771
 21
-0.23453371226787567
 31
0.3402711749076843
 12
0.25065597891807556
 22
-0.23453371226787567
 32
0.3402711749076843
 13
0.25065597891807556
 23
-0.2504981458187103
 33
0.3402711749076843
  0
3DFACE
  8
0
 10
0.23394128680229187
 20
-0.25249814987182617
 30
0.31769323348999023
 11
0.23394128680229187
 21
-0.25249814987182617
 31
0.21234388649463654
 12
0.23394128680229187
 22
-0.2975379526615143
 32
0.008666068315505981
 13
0.23394128680229187
 23
-0.2975379526615143
 33
0.008666068315505981
  0
3DFACE
  8
0
 10
0.23394128680229187
 20
-0.25249814987182617
 30
0.21234388649463654
 11
0.23394128680229187
 21
-0.25249814987182617
 31
0.18770501017570496
 12
0.23394128680229187
 22
-0.2975379526615143
 32
0.008666068315505981
 13
0.23394128680229187
 23
-0.2975379526615143
 33
0.008666068315505981
  0
3DFACE
  8
0
 10
0.23794129490852356
 20
-0.23253370821475983
 30
0.4546848237514496
 11
0.2526559829711914
 21
-0.23253370821475983
 31
0.34227117896080017
 12
0.23794129490852356
 22
-0.23253370821475983
 32
0.34227117896080017
 13
0.23794129490852356
 23
-0.23253370821475983
 33
0.34227117896080017
  0
3DFACE
  8
0
 10
0.23394128680229187
 20
-0.25249814987182617
 30
0.34227117896080017
 11
0.23394128680229187
 21
-0.25249814987182617
 31
0.31769323348999023
 12
0.23394128680229187
 22
-0.2975379526615143
 32
0.008666068315505981
 13
0.23394128680229187
 23
-0.2975379526615143
 33
0.008666068315505981
  0
3DFACE
  8
0
 10
0.23394128680229187
 20
-0.23653371632099152
 30
0.18770501017570496
 11
0.23394128680229187
 21
-0.23653371632099152
 31
0.008666068315505981
 12
0.23394128680229187
 22
-0.25249814987182617
 32
0.18770501017570496
 13
0.23394128680229187
 23
-0.25249814987182617
 33
0.18770501017570496
  0
3DFACE
  8
0
 10
0.29894551634788513
 20
-0.23253370821475983
 30
0.008666068315505981
 11
0.2526559829711914
 21
-0.23253370821475983
 31
0.21234388649463654
 12
0.2526559829711914
 22
-0.23253370821475983
 32
0.31769323348999023
 13
0.2526559829711914
 23
-0.23253370821475983
 33
0.31769323348999023
  0
3DFACE
  8
0
 10
0.2526559829711914
 20
-0.23253370821475983
 30
0.18770501017570496
 11
0.23794129490852356
 21
-0.23253370821475983
 31
0.008666068315505981
 12
0.23794129490852356
 22
-0.23253370821475983
 32
0.18770501017570496
 13
0.23794129490852356
 23
-0.23253370821475983
 33
0.18770501017570496
  0
3DFACE
  8
0
 10
0.29894551634788513
 20
-0.23253370821475983
 30
0.008666068315505981
 11
0.2526559829711914
 21
-0.23253370821475983
 31
0.18770501017570496
 12
0.2526559829711914
 22
-0.23253370821475983
 32
0.21234388649463654
 13
0.2526559829711914
 23
-0.23253370821475983
 33
0.21234388649463654
  0
3DFACE
  8
0
 10
0.23594129085540771
 20
-0.23453371226787567
 30
0.006666064262390137
 11
0.23831816017627716
 21
-0.23691058158874512
 31
0.004732012748718262
 12
0.23831816017627716
 22
-0.2971610724925995
 32
0.004732012748718262
 13
0.23594129085540771
 23
-0.2995379567146301
 33
0.006666064262390137
  0
3DFACE
  8
0
 10
0.29894551634788513
 20
-0.23253370821475983
 30
0.008666068315505981
 11
0.2526559829711914
 21
-0.23253370821475983
 31
0.31769323348999023
 12
0.2526559829711914
 22
-0.23253370821475983
 32
0.34227117896080017
 13
0.2526559829711914
 23
-0.23253370821475983
 33
0.34227117896080017
  0
3DFACE
  8
0
 10
0.23794129490852356
 20
-0.23253370821475983
 30
0.34227117896080017
 11
0.23594129085540771
 21
-0.23453371226787567
 31
0.3402711749076843
 12
0.23594129085540771
 22
-0.23453371226787567
 32
0.45668482780456543
 13
0.23794129490852356
 23
-0.23253370821475983
 33
0.4546848237514496
  0
3DFACE
  8
0
 10
0.23794129490852356
 20
-0.23253370821475983
 30
0.008666068315505981
 11
0.23594129085540771
 21
-0.23453371226787567
 31
0.006666064262390137
 12
0.23594129085540771
 22
-0.23453371226787567
 32
0.1897050142288208
 13
0.23794129490852356
 23
-0.23253370821475983
 33
0.18770501017570496
  0
3DFACE
  8
0
 10
0.23794129490852356
 20
-0.23253370821475983
 30
0.21234388649463654
 11
0.23594129085540771
 21
-0.23453371226787567
 31
0.2103438824415207
 12
0.23594129085540771
 22
-0.23453371226787567
 32
0.3196932375431061
 13
0.23794129490852356
 23
-0.23253370821475983
 33
0.31769323348999023
  0
3DFACE
  8
0
 10
0.2526559829711914
 20
-0.23253370821475983
 30
0.21234388649463654
 11
0.25065597891807556
 21
-0.23453371226787567
 31
0.2103438824415207
 12
0.23594129085540771
 22
-0.23453371226787567
 32
0.2103438824415207
 13
0.23794129490852356
 23
-0.23253370821475983
 33
0.21234388649463654
  0
3DFACE
  8
0
 10
0.23794129490852356
 20
-0.23253370821475983
 30
0.18770501017570496
 11
0.23594129085540771
 21
-0.23453371226787567
 31
0.1897050142288208
 12
0.25065597891807556
 22
-0.23453371226787567
 32
0.1897050142288208
 13
0.2526559829711914
 23
-0.23253370821475983
 33
0.18770501017570496
  0
3DFACE
  8
0
 10
0.2526559829711914
 20
-0.23253370821475983
 30
0.34227117896080017
 11
0.25065597891807556
 21
-0.23453371226787567
 31
0.3402711749076843
 12
0.23594129085540771
 22
-0.23453371226787567
 32
0.3402711749076843
 13
0.23794129490852356
 23
-0.23253370821475983
 33
0.34227117896080017
  0
3DFACE
  8
0
 10
0.23794129490852356
 20
-0.23253370821475983
 30
0.31769323348999023
 11
0.23594129085540771
 21
-0.23453371226787567
 31
0.3196932375431061
 12
0.25065597891807556
 22
-0.23453371226787567
 32
0.3196932375431061
 13
0.2526559829711914
 23
-0.23253370821475983
 33
0.31769323348999023
  0
3DFACE
  8
0
 10
0.2526559829711914
 20
-0.23253370821475983
 30
0.18770501017570496
 11
0.25065597891807556
 21
-0.23453371226787567
 31
0.1897050142288208
 12
0.25065597891807556
 22
-0.23453371226787567
 32
0.2103438824415207
 13
0.2526559829711914
 23
-0.23253370821475983
 33
0.21234388649463654
  0
3DFACE
  8
0
 10
0.23794129490852356
 20
-0.23253370821475983
 30
0.4546848237514496
 11
0.23594129085540771
 21
-0.23453371226787567
 31
0.45668482780456543
 12
0.300945520401001
 22
-0.23453371226787567
 32
0.45668482780456543
 13
0.29894551634788513
 23
-0.23253370821475983
 33
0.4546848237514496
  0
3DFACE
  8
0
 10
0.2526559829711914
 20
-0.23253370821475983
 30
0.31769323348999023
 11
0.25065597891807556
 21
-0.23453371226787567
 31
0.3196932375431061
 12
0.25065597891807556
 22
-0.23453371226787567
 32
0.3402711749076843
 13
0.2526559829711914
 23
-0.23253370821475983
 33
0.34227117896080017
  0
3DFACE
  8
0
 10
0.29894551634788513
 20
-0.23253370821475983
 30
0.4546848237514496
 11
0.300945520401001
 21
-0.23453371226787567
 31
0.45668482780456543
 12
0.300945520401001
 22
-0.23453371226787567
 32
0.006666064262390137
 13
0.29894551634788513
 23
-0.23253370821475983
 33
0.008666068315505981
  0
3DFACE
  8
0
 10
0.3029455244541168
 20
-0.23653371632099152
 30
0.4546848237514496
 11
0.300945520401001
 21
-0.23453371226787567
 31
0.45668482780456543
 12
0.300945520401001
 22
-0.2995379567146301
 32
0.45668482780456543
 13
0.3029455244541168
 23
-0.2975379526615143
 33
0.4546848237514496
  0
3DFACE
  8
0
 10
0.3029455244541168
 20
-0.23653371632099152
 30
0.008666068315505981
 11
0.300945520401001
 21
-0.23453371226787567
 31
0.006666064262390137
 12
0.300945520401001
 22
-0.23453371226787567
 32
0.45668482780456543
 13
0.3029455244541168
 23
-0.23653371632099152
 33
0.4546848237514496
  0
3DFACE
  8
0
 10
0.29894551634788513
 20
-0.30153796076774597
 30
0.4546848237514496
 11
0.300945520401001
 21
-0.2995379567146301
 31
0.45668482780456543
 12
0.23594129085540771
 22
-0.2995379567146301
 32
0.45668482780456543
 13
0.23794129490852356
 23
-0.30153796076774597
 33
0.4546848237514496
  0
3DFACE
  8
0
 10
0.23394128680229187
 20
-0.23653371632099152
 30
0.4546848237514496
 11
0.23594129085540771
 21
-0.23453371226787567
 31
0.45668482780456543
 12
0.23594129085540771
 22
-0.23453371226787567
 32
0.3402711749076843
 13
0.23394128680229187
 23
-0.23653371632099152
 33
0.34227117896080017
  0
3DFACE
  8
0
 10
0.23394128680229187
 20
-0.23653371632099152
 30
0.18770501017570496
 11
0.23594129085540771
 21
-0.23453371226787567
 31
0.1897050142288208
 12
0.23594129085540771
 22
-0.23453371226787567
 32
0.006666064262390137
 13
0.23394128680229187
 23
-0.23653371632099152
 33
0.008666068315505981
  0
3DFACE
  8
0
 10
0.23394128680229187
 20
-0.23653371632099152
 30
0.21234388649463654
 11
0.23594129085540771
 21
-0.23453371226787567
 31
0.2103438824415207
 12
0.23594129085540771
 22
-0.2504981458187103
 32
0.2103438824415207
 13
0.23394128680229187
 23
-0.25249814987182617
 33
0.21234388649463654
  0
3DFACE
  8
0
 10
0.23394128680229187
 20
-0.25249814987182617
 30
0.18770501017570496
 11
0.23594129085540771
 21
-0.2504981458187103
 31
0.1897050142288208
 12
0.23594129085540771
 22
-0.23453371226787567
 32
0.1897050142288208
 13
0.23394128680229187
 23
-0.23653371632099152
 33
0.18770501017570496
  0
3DFACE
  8
0
 10
0.23394128680229187
 20
-0.23653371632099152
 30
0.31769323348999023
 11
0.23594129085540771
 21
-0.23453371226787567
 31
0.3196932375431061
 12
0.23594129085540771
 22
-0.23453371226787567
 32
0.2103438824415207
 13
0.23394128680229187
 23
-0.23653371632099152
 33
0.21234388649463654
  0
3DFACE
  8
0
 10
0.23394128680229187
 20
-0.23653371632099152
 30
0.34227117896080017
 11
0.23594129085540771
 21
-0.23453371226787567
 31
0.3402711749076843
 12
0.23594129085540771
 22
-0.2504981458187103
 32
0.3402711749076843
 13
0.23394128680229187
 23
-0.25249814987182617
 33
0.34227117896080017
  0
3DFACE
  8
0
 10
0.23394128680229187
 20
-0.25249814987182617
 30
0.31769323348999023
 11
0.23594129085540771
 21
-0.2504981458187103
 31
0.3196932375431061
 12
0.23594129085540771
 22
-0.23453371226787567
 32
0.3196932375431061
 13
0.23394128680229187
 23
-0.23653371632099152
 33
0.31769323348999023
  0
3DFACE
  8
0
 10
0.23394128680229187
 20
-0.2975379526615143
 30
0.4546848237514496
 11
0.23594129085540771
 21
-0.2995379567146301
 31
0.45668482780456543
 12
0.23594129085540771
 22
-0.23453371226787567
 32
0.45668482780456543
 13
0.23394128680229187
 23
-0.23653371632099152
 33
0.4546848237514496
  0
3DFACE
  8
0
 10
0.23394128680229187
 20
-0.25249814987182617
 30
0.21234388649463654
 11
0.23594129085540771
 21
-0.2504981458187103
 31
0.2103438824415207
 12
0.23594129085540771
 22
-0.2504981458187103
 32
0.1897050142288208
 13
0.23394128680229187
 23
-0.25249814987182617
 33
0.18770501017570496
  0
3DFACE
  8
0
 10
0.23394128680229187
 20
-0.25249814987182617
 30
0.34227117896080017
 11
0.23594129085540771
 21
-0.2504981458187103
 31
0.3402711749076843
 12
0.23594129085540771
 22
-0.2504981458187103
 32
0.3196932375431061
 13
0.23394128680229187
 23
-0.25249814987182617
 33
0.31769323348999023
  0
3DFACE
  8
0
 10
-0.2526170611381531
 20
-0.23253370821475983
 30
0.31769323348999023
 11
-0.23790234327316284
 21
-0.23253370821475983
 31
0.31769323348999023
 12
-0.23790234327316284
 22
-0.23253370821475983
 32
0.21234388649463654
 13
-0.2526170611381531
 23
-0.23253370821475983
 33
0.21234388649463654
  0
3DFACE
  8
0
 10
-0.30090659856796265
 20
-0.23453371226787567
 30
0.006666064262390137
 11
-0.235902339220047
 21
-0.23453371226787567
 31
0.006666064262390137
 12
-0.23827920854091644
 22
-0.23691058158874512
 32
0.004732012748718262
 13
-0.298529714345932
 23
-0.23691058158874512
 33
0.004732012748718262
  0
3DFACE
  8
0
 10
-0.235902339220047
 20
-0.2995379567146301
 30
0.006666064262390137
 11
-0.30090659856796265
 21
-0.2995379567146301
 31
0.006666064262390137
 12
-0.298529714345932
 22
-0.2971610724925995
 32
0.004732012748718262
 13
-0.23827920854091644
 23
-0.2971610724925995
 33
0.004732012748718262
  0
3DFACE
  8
0
 10
-0.23390233516693115
 20
-0.23653371632099152
 30
0.31769323348999023
 11
-0.23390233516693115
 21
-0.25249814987182617
 31
0.31769323348999023
 12
-0.23390233516693115
 22
-0.25249814987182617
 32
0.21234388649463654
 13
-0.23390233516693115
 23
-0.23653371632099152
 33
0.21234388649463654
  0
3DFACE
  8
0
 10
-0.23390233516693115
 20
-0.23653371632099152
 30
0.4546848237514496
 11
-0.23390233516693115
 21
-0.2975379526615143
 31
0.4546848237514496
 12
-0.23390233516693115
 22
-0.25249814987182617
 32
0.34227117896080017
 13
-0.23390233516693115
 23
-0.23653371632099152
 33
0.34227117896080017
  0
3DFACE
  8
0
 10
-0.2989065945148468
 20
-0.23253370821475983
 30
0.4546848237514496
 11
-0.23790234327316284
 21
-0.23253370821475983
 31
0.4546848237514496
 12
-0.2526170611381531
 22
-0.23253370821475983
 32
0.34227117896080017
 13
-0.2989065945148468
 23
-0.23253370821475983
 33
0.008666068315505981
  0
3DFACE
  8
0
 10
-0.23827920854091644
 20
-0.23691058158874512
 30
0.004732012748718262
 11
-0.23827920854091644
 21
-0.2971610724925995
 31
0.004732012748718262
 12
-0.298529714345932
 22
-0.2971610724925995
 32
0.004732012748718262
 13
-0.298529714345932
 23
-0.23691058158874512
 33
0.004732012748718262
  0
3DFACE
  8
0
 10
-0.25061705708503723
 20
-0.23453371226787567
 30
0.3196932375431061
 11
-0.25061705708503723
 21
-0.23453371226787567
 31
0.3402711749076843
 12
-0.25061705708503723
 22
-0.2504981458187103
 32
0.3402711749076843
 13
-0.25061705708503723
 23
-0.2504981458187103
 33
0.3196932375431061
  0
3DFACE
  8
0
 10
-0.25061705708503723
 20
-0.23453371226787567
 30
0.1897050142288208
 11
-0.25061705708503723
 21
-0.23453371226787567
 31
0.2103438824415207
 12
-0.25061705708503723
 22
-0.2504981458187103
 32
0.2103438824415207
 13
-0.25061705708503723
 23
-0.2504981458187103
 33
0.1897050142288208
  0
3DFACE
  8
0
 10
-0.25061705708503723
 20
-0.2504981458187103
 30
0.2103438824415207
 11
-0.235902339220047
 21
-0.2504981458187103
 31
0.2103438824415207
 12
-0.235902339220047
 22
-0.2504981458187103
 32
0.1897050142288208
 13
-0.25061705708503723
 23
-0.2504981458187103
 33
0.1897050142288208
  0
3DFACE
  8
0
 10
-0.25061705708503723
 20
-0.2504981458187103
 30
0.3402711749076843
 11
-0.235902339220047
 21
-0.2504981458187103
 31
0.3402711749076843
 12
-0.235902339220047
 22
-0.2504981458187103
 32
0.3196932375431061
 13
-0.25061705708503723
 23
-0.2504981458187103
 33
0.3196932375431061
  0
3DFACE
  8
0
 10
-0.25061705708503723
 20
-0.2504981458187103
 30
0.3196932375431061
 11
-0.235902339220047
 21
-0.2504981458187103
 31
0.3196932375431061
 12
-0.235902339220047
 22
-0.23453371226787567
 32
0.3196932375431061
 13
-0.25061705708503723
 23
-0.23453371226787567
 33
0.3196932375431061
  0
3DFACE
  8
0
 10
-0.25061705708503723
 20
-0.2504981458187103
 30
0.1897050142288208
 11
-0.235902339220047
 21
-0.2504981458187103
 31
0.1897050142288208
 12
-0.235902339220047
 22
-0.23453371226787567
 32
0.1897050142288208
 13
-0.25061705708503723
 23
-0.23453371226787567
 33
0.1897050142288208
  0
3DFACE
  8
0
 10
-0.235902339220047
 20
-0.2504981458187103
 30
0.2103438824415207
 11
-0.25061705708503723
 21
-0.2504981458187103
 31
0.2103438824415207
 12
-0.25061705708503723
 22
-0.23453371226787567
 32
0.2103438824415207
 13
-0.235902339220047
 23
-0.23453371226787567
 33
0.2103438824415207
  0
3DFACE
  8
0
 10
-0.235902339220047
 20
-0.2504981458187103
 30
0.3402711749076843
 11
-0.25061705708503723
 21
-0.2504981458187103
 31
0.3402711749076843
 12
-0.25061705708503723
 22
-0.23453371226787567
 32
0.3402711749076843
 13
-0.235902339220047
 23
-0.23453371226787567
 33
0.3402711749076843
  0
3DFACE
  8
0
 10
-0.23790234327316284
 20
-0.23253370821475983
 30
0.4546848237514496
 11
-0.23790234327316284
 21
-0.23253370821475983
 31
0.34227117896080017
 12
-0.2526170611381531
 22
-0.23253370821475983
 32
0.34227117896080017
 13
-0.2526170611381531
 23
-0.23253370821475983
 33
0.34227117896080017
  0
3DFACE
  8
0
 10
-0.23390233516693115
 20
-0.23653371632099152
 30
0.18770501017570496
 11
-0.23390233516693115
 21
-0.25249814987182617
 31
0.18770501017570496
 12
-0.23390233516693115
 22
-0.23653371632099152
 32
0.008666068315505981
 13
-0.23390233516693115
 23
-0.23653371632099152
 33
0.008666068315505981
  0
3DFACE
  8
0
 10
-0.2989065945148468
 20
-0.23253370821475983
 30
0.008666068315505981
 11
-0.2526170611381531
 21
-0.23253370821475983
 31
0.31769323348999023
 12
-0.2526170611381531
 22
-0.23253370821475983
 32
0.21234388649463654
 13
-0.2526170611381531
 23
-0.23253370821475983
 33
0.21234388649463654
  0
3DFACE
  8
0
 10
-0.2526170611381531
 20
-0.23253370821475983
 30
0.18770501017570496
 11
-0.23790234327316284
 21
-0.23253370821475983
 31
0.18770501017570496
 12
-0.23790234327316284
 22
-0.23253370821475983
 32
0.008666068315505981
 13
-0.23790234327316284
 23
-0.23253370821475983
 33
0.008666068315505981
  0
3DFACE
  8
0
 10
-0.2989065945148468
 20
-0.23253370821475983
 30
0.008666068315505981
 11
-0.2526170611381531
 21
-0.23253370821475983
 31
0.21234388649463654
 12
-0.2526170611381531
 22
-0.23253370821475983
 32
0.18770501017570496
 13
-0.2526170611381531
 23
-0.23253370821475983
 33
0.18770501017570496
  0
3DFACE
  8
0
 10
-0.235902339220047
 20
-0.23453371226787567
 30
0.006666064262390137
 11
-0.235902339220047
 21
-0.2995379567146301
 31
0.006666064262390137
 12
-0.23827920854091644
 22
-0.2971610724925995
 32
0.004732012748718262
 13
-0.23827920854091644
 23
-0.23691058158874512
 33
0.004732012748718262
  0
3DFACE
  8
0
 10
-0.2989065945148468
 20
-0.23253370821475983
 30
0.008666068315505981
 11
-0.2526170611381531
 21
-0.23253370821475983
 31
0.34227117896080017
 12
-0.2526170611381531
 22
-0.23253370821475983
 32
0.31769323348999023
 13
-0.2526170611381531
 23
-0.23253370821475983
 33
0.31769323348999023
  0
3DFACE
  8
0
 10
-0.30090659856796265
 20
-0.2995379567146301
 30
0.006666064262390137
 11
-0.30090659856796265
 21
-0.23453371226787567
 31
0.006666064262390137
 12
-0.298529714345932
 22
-0.23691058158874512
 32
0.004732012748718262
 13
-0.298529714345932
 23
-0.2971610724925995
 33
0.004732012748718262
  0
3DFACE
  8
0
 10
-0.23790234327316284
 20
-0.23253370821475983
 30
0.34227117896080017
 11
-0.23790234327316284
 21
-0.23253370821475983
 31
0.4546848237514496
 12
-0.235902339220047
 22
-0.23453371226787567
 32
0.45668482780456543
 13
-0.235902339220047
 23
-0.23453371226787567
 33
0.3402711749076843
  0
3DFACE
  8
0
 10
-0.23790234327316284
 20
-0.23253370821475983
 30
0.008666068315505981
 11
-0.23790234327316284
 21
-0.23253370821475983
 31
0.18770501017570496
 12
-0.235902339220047
 22
-0.23453371226787567
 32
0.1897050142288208
 13
-0.235902339220047
 23
-0.23453371226787567
 33
0.006666064262390137
  0
3DFACE
  8
0
 10
-0.23790234327316284
 20
-0.23253370821475983
 30
0.21234388649463654
 11
-0.23790234327316284
 21
-0.23253370821475983
 31
0.31769323348999023
 12
-0.235902339220047
 22
-0.23453371226787567
 32
0.3196932375431061
 13
-0.235902339220047
 23
-0.23453371226787567
 33
0.2103438824415207
  0
3DFACE
  8
0
 10
-0.2526170611381531
 20
-0.23253370821475983
 30
0.21234388649463654
 11
-0.23790234327316284
 21
-0.23253370821475983
 31
0.21234388649463654
 12
-0.235902339220047
 22
-0.23453371226787567
 32
0.2103438824415207
 13
-0.25061705708503723
 23
-0.23453371226787567
 33
0.2103438824415207
  0
3DFACE
  8
0
 10
-0.23790234327316284
 20
-0.23253370821475983
 30
0.18770501017570496
 11
-0.2526170611381531
 21
-0.23253370821475983
 31
0.18770501017570496
 12
-0.25061705708503723
 22
-0.23453371226787567
 32
0.1897050142288208
 13
-0.235902339220047
 23
-0.23453371226787567
 33
0.1897050142288208
  0
3DFACE
  8
0
 10
-0.2526170611381531
 20
-0.23253370821475983
 30
0.34227117896080017
 11
-0.23790234327316284
 21
-0.23253370821475983
 31
0.34227117896080017
 12
-0.235902339220047
 22
-0.23453371226787567
 32
0.3402711749076843
 13
-0.25061705708503723
 23
-0.23453371226787567
 33
0.3402711749076843
  0
3DFACE
  8
0
 10
-0.23790234327316284
 20
-0.23253370821475983
 30
0.31769323348999023
 11
-0.2526170611381531
 21
-0.23253370821475983
 31
0.31769323348999023
 12
-0.25061705708503723
 22
-0.23453371226787567
 32
0.3196932375431061
 13
-0.235902339220047
 23
-0.23453371226787567
 33
0.3196932375431061
  0
3DFACE
  8
0
 10
-0.2526170611381531
 20
-0.23253370821475983
 30
0.18770501017570496
 11
-0.2526170611381531
 21
-0.23253370821475983
 31
0.21234388649463654
 12
-0.25061705708503723
 22
-0.23453371226787567
 32
0.2103438824415207
 13
-0.25061705708503723
 23
-0.23453371226787567
 33
0.1897050142288208
  0
3DFACE
  8
0
 10
-0.23790234327316284
 20
-0.23253370821475983
 30
0.4546848237514496
 11
-0.2989065945148468
 21
-0.23253370821475983
 31
0.4546848237514496
 12
-0.30090659856796265
 22
-0.23453371226787567
 32
0.45668482780456543
 13
-0.235902339220047
 23
-0.23453371226787567
 33
0.45668482780456543
  0
3DFACE
  8
0
 10
-0.2526170611381531
 20
-0.23253370821475983
 30
0.31769323348999023
 11
-0.2526170611381531
 21
-0.23253370821475983
 31
0.34227117896080017
 12
-0.25061705708503723
 22
-0.23453371226787567
 32
0.3402711749076843
 13
-0.25061705708503723
 23
-0.23453371226787567
 33
0.3196932375431061
  0
3DFACE
  8
0
 10
-0.3029066026210785
 20
-0.23653371632099152
 30
0.4546848237514496
 11
-0.3029066026210785
 21
-0.2975379526615143
 31
0.4546848237514496
 12
-0.30090659856796265
 22
-0.2995379567146301
 32
0.45668482780456543
 13
-0.30090659856796265
 23
-0.23453371226787567
 33
0.45668482780456543
  0
3DFACE
  8
0
 10
-0.2989065945148468
 20
-0.30153796076774597
 30
0.4546848237514496
 11
-0.23790234327316284
 21
-0.30153796076774597
 31
0.4546848237514496
 12
-0.235902339220047
 22
-0.2995379567146301
 32
0.45668482780456543
 13
-0.30090659856796265
 23
-0.2995379567146301
 33
0.45668482780456543
  0
3DFACE
  8
0
 10
-0.23390233516693115
 20
-0.23653371632099152
 30
0.4546848237514496
 11
-0.23390233516693115
 21
-0.23653371632099152
 31
0.34227117896080017
 12
-0.235902339220047
 22
-0.23453371226787567
 32
0.3402711749076843
 13
-0.235902339220047
 23
-0.23453371226787567
 33
0.45668482780456543
  0
3DFACE
  8
0
 10
-0.23390233516693115
 20
-0.23653371632099152
 30
0.18770501017570496
 11
-0.23390233516693115
 21
-0.23653371632099152
 31
0.008666068315505981
 12
-0.235902339220047
 22
-0.23453371226787567
 32
0.006666064262390137
 13
-0.235902339220047
 23
-0.23453371226787567
 33
0.1897050142288208
  0
3DFACE
  8
0
 10
-0.23390233516693115
 20
-0.23653371632099152
 30
0.21234388649463654
 11
-0.23390233516693115
 21
-0.25249814987182617
 31
0.21234388649463654
 12
-0.235902339220047
 22
-0.2504981458187103
 32
0.2103438824415207
 13
-0.235902339220047
 23
-0.23453371226787567
 33
0.2103438824415207
  0
3DFACE
  8
0
 10
-0.23390233516693115
 20
-0.25249814987182617
 30
0.18770501017570496
 11
-0.23390233516693115
 21
-0.23653371632099152
 31
0.18770501017570496
 12
-0.235902339220047
 22
-0.23453371226787567
 32
0.1897050142288208
 13
-0.235902339220047
 23
-0.2504981458187103
 33
0.1897050142288208
  0
3DFACE
  8
0
 10
-0.23390233516693115
 20
-0.23653371632099152
 30
0.31769323348999023
 11
-0.23390233516693115
 21
-0.23653371632099152
 31
0.21234388649463654
 12
-0.235902339220047
 22
-0.23453371226787567
 32
0.2103438824415207
 13
-0.235902339220047
 23
-0.23453371226787567
 33
0.3196932375431061
  0
3DFACE
  8
0
 10
-0.23390233516693115
 20
-0.23653371632099152
 30
0.34227117896080017
 11
-0.23390233516693115
 21
-0.25249814987182617
 31
0.34227117896080017
 12
-0.235902339220047
 22
-0.2504981458187103
 32
0.3402711749076843
 13
-0.235902339220047
 23
-0.23453371226787567
 33
0.3402711749076843
  0
3DFACE
  8
0
 10
-0.23390233516693115
 20
-0.25249814987182617
 30
0.31769323348999023
 11
-0.23390233516693115
 21
-0.23653371632099152
 31
0.31769323348999023
 12
-0.235902339220047
 22
-0.23453371226787567
 32
0.3196932375431061
 13
-0.235902339220047
 23
-0.2504981458187103
 33
0.3196932375431061
  0
3DFACE
  8
0
 10
-0.23390233516693115
 20
-0.2975379526615143
 30
0.4546848237514496
 11
-0.23390233516693115
 21
-0.23653371632099152
 31
0.4546848237514496
 12
-0.235902339220047
 22
-0.23453371226787567
 32
0.45668482780456543
 13
-0.235902339220047
 23
-0.2995379567146301
 33
0.45668482780456543
  0
3DFACE
  8
0
 10
-0.23390233516693115
 20
-0.25249814987182617
 30
0.21234388649463654
 11
-0.23390233516693115
 21
-0.25249814987182617
 31
0.18770501017570496
 12
-0.235902339220047
 22
-0.2504981458187103
 32
0.1897050142288208
 13
-0.235902339220047
 23
-0.2504981458187103
 33
0.2103438824415207
  0
3DFACE
  8
0
 10
-0.23390233516693115
 20
-0.25249814987182617
 30
0.34227117896080017
 11
-0.23390233516693115
 21
-0.25249814987182617
 31
0.31769323348999023
 12
-0.235902339220047
 22
-0.2504981458187103
 32
0.3196932375431061
 13
-0.235902339220047
 23
-0.2504981458187103
 33
0.3402711749076843
  0
3DFACE
  8
0
 10
-0.23390233516693115
 20
-0.23653371632099152
 30
0.008666068315505981
 11
-0.23390233516693115
 21
-0.2975379526615143
 31
0.008666068315505981
 12
-0.235902339220047
 22
-0.2995379567146301
 32
0.006666064262390137
 13
-0.235902339220047
 23
-0.23453371226787567
 33
0.006666064262390137
  0
3DFACE
  8
0
 10
0.33002641797065735
 20
-0.33002641797065735
 30
0.46692991256713867
 11
0.33002641797065735
 21
-0.21027052402496338
 31
0.46692991256713867
 12
0.3266602158546448
 22
-0.2112143188714981
 32
0.47114095091819763
 13
0.3266602158546448
 23
-0.3266602158546448
 33
0.47114095091819763
  0
3DFACE
  8
0
 10
-0.3266602158546448
 20
-0.20953072607517242
 30
0.47114095091819763
 11
-0.20976746082305908
 21
-0.20953072607517242
 31
0.47114095091819763
 12
-0.20976746082305908
 22
0.20938755571842194
 32
0.47114095091819763
 13
-0.3266602158546448
 23
0.20938755571842194
 33
0.47114095091819763
  0
3DFACE
  8
0
 10
-0.3266602158546448
 20
0.21107114851474762
 30
0.47114095091819763
 11
0.3266602158546448
 21
0.21107114851474762
 31
0.47114095091819763
 12
0.3266602158546448
 22
0.3266602158546448
 32
0.47114095091819763
 13
-0.3266602158546448
 23
0.3266602158546448
 33
0.47114095091819763
  0
3DFACE
  8
0
 10
0.20984533429145813
 20
-0.20953072607517242
 30
0.47114095091819763
 11
0.3266602158546448
 21
-0.20953072607517242
 31
0.47114095091819763
 12
0.3266602158546448
 22
0.20938755571842194
 32
0.47114095091819763
 13
0.20984533429145813
 23
0.20938755571842194
 33
0.47114095091819763
  0
3DFACE
  8
0
 10
-0.3266602158546448
 20
-0.3266602158546448
 30
0.47114095091819763
 11
0.3266602158546448
 21
-0.3266602158546448
 31
0.47114095091819763
 12
0.3266602158546448
 22
-0.2112143188714981
 32
0.47114095091819763
 13
-0.3266602158546448
 23
-0.2112143188714981
 33
0.47114095091819763
  0
3DFACE
  8
0
 10
0.33002641797065735
 20
-0.21027052402496338
 30
0.4567720890045166
 11
0.33002641797065735
 21
-0.33002641797065735
 31
0.4567720890045166
 12
0.20784533023834229
 22
-0.20827051997184753
 32
0.4567720890045166
 13
0.20784533023834229
 23
-0.20827051997184753
 33
0.4567720890045166
  0
3DFACE
  8
0
 10
0.33002641797065735
 20
0.33002641797065735
 30
0.46692991256713867
 11
-0.33002641797065735
 21
0.33002641797065735
 31
0.46692991256713867
 12
-0.3266602158546448
 22
0.3266602158546448
 32
0.47114095091819763
 13
0.3266602158546448
 23
0.3266602158546448
 33
0.47114095091819763
  0
3DFACE
  8
0
 10
-0.33002641797065735
 20
-0.33002641797065735
 30
0.46692991256713867
 11
0.33002641797065735
 21
-0.33002641797065735
 31
0.46692991256713867
 12
0.3266602158546448
 22
-0.3266602158546448
 32
0.47114095091819763
 13
-0.3266602158546448
 23
-0.3266602158546448
 33
0.47114095091819763
  0
3DFACE
  8
0
 10
-0.33002641797065735
 20
-0.21027052402496338
 30
0.46692991256713867
 11
-0.33002641797065735
 21
-0.33002641797065735
 31
0.46692991256713867
 12
-0.3266602158546448
 22
-0.3266602158546448
 32
0.47114095091819763
 13
-0.3266602158546448
 23
-0.2112143188714981
 33
0.47114095091819763
  0
3DFACE
  8
0
 10
-0.2097674459218979
 20
-0.21027052402496338
 30
0.46692991256713867
 11
-0.33002641797065735
 21
-0.21027052402496338
 31
0.46692991256713867
 12
-0.3266602158546448
 22
-0.2112143188714981
 32
0.47114095091819763
 13
-0.3266602158546448
 23
-0.2112143188714981
 33
0.47114095091819763
  0
3DFACE
  8
0
 10
0.33002641797065735
 20
0.2101273536682129
 30
0.46692991256713867
 11
0.33002641797065735
 21
0.33002641797065735
 31
0.46692991256713867
 12
0.3266602158546448
 22
0.3266602158546448
 32
0.47114095091819763
 13
0.3266602158546448
 23
0.21107114851474762
 33
0.47114095091819763
  0
3DFACE
  8
0
 10
-0.33002641797065735
 20
0.33002641797065735
 30
0.46692991256713867
 11
-0.33002641797065735
 21
0.2101273536682129
 31
0.46692991256713867
 12
-0.3266602158546448
 22
0.21107114851474762
 32
0.47114095091819763
 13
-0.3266602158546448
 23
0.3266602158546448
 33
0.47114095091819763
  0
3DFACE
  8
0
 10
0.20984533429145813
 20
0.2101273536682129
 30
0.46692991256713867
 11
0.33002641797065735
 21
0.2101273536682129
 31
0.46692991256713867
 12
0.3266602158546448
 22
0.21107114851474762
 32
0.47114095091819763
 13
0.3266602158546448
 23
0.21107114851474762
 33
0.47114095091819763
  0
3DFACE
  8
0
 10
0.33002641797065735
 20
-0.33002641797065735
 30
0.4567720890045166
 11
0.33002641797065735
 21
-0.21027052402496338
 31
0.4567720890045166
 12
0.33002641797065735
 22
-0.21027052402496338
 32
0.46692991256713867
 13
0.33002641797065735
 23
-0.33002641797065735
 33
0.46692991256713867
  0
3DFACE
  8
0
 10
0.33002641797065735
 20
0.33002641797065735
 30
0.4567720890045166
 11
-0.33002641797065735
 21
0.33002641797065735
 31
0.4567720890045166
 12
-0.33002641797065735
 22
0.33002641797065735
 32
0.46692991256713867
 13
0.33002641797065735
 23
0.33002641797065735
 33
0.46692991256713867
  0
3DFACE
  8
0
 10
-0.33002641797065735
 20
-0.33002641797065735
 30
0.4567720890045166
 11
0.33002641797065735
 21
-0.33002641797065735
 31
0.4567720890045166
 12
0.33002641797065735
 22
-0.33002641797065735
 32
0.46692991256713867
 13
-0.33002641797065735
 23
-0.33002641797065735
 33
0.46692991256713867
  0
3DFACE
  8
0
 10
0.20784533023834229
 20
-0.20827051997184753
 30
0.4567720890045166
 11
0.20784533023834229
 21
0.20812734961509705
 31
0.4567720890045166
 12
0.33002641797065735
 22
0.2101273536682129
 32
0.4567720890045166
 13
0.33002641797065735
 23
-0.21027052402496338
 33
0.4567720890045166
  0
3DFACE
  8
0
 10
0.33002641797065735
 20
0.2101273536682129
 30
0.4567720890045166
 11
0.33002641797065735
 21
0.33002641797065735
 31
0.4567720890045166
 12
0.33002641797065735
 22
0.33002641797065735
 32
0.46692991256713867
 13
0.33002641797065735
 23
0.2101273536682129
 33
0.46692991256713867
  0
3DFACE
  8
0
 10
-0.33002641797065735
 20
0.33002641797065735
 30
0.4567720890045166
 11
-0.33002641797065735
 21
0.2101273536682129
 31
0.4567720890045166
 12
-0.33002641797065735
 22
0.2101273536682129
 32
0.46692991256713867
 13
-0.33002641797065735
 23
0.33002641797065735
 33
0.46692991256713867
  0
3DFACE
  8
0
 10
-0.33002641797065735
 20
-0.21027052402496338
 30
0.4567720890045166
 11
-0.33002641797065735
 21
0.2101273536682129
 31
0.4567720890045166
 12
-0.20776744186878204
 22
0.20812734961509705
 32
0.4567720890045166
 13
-0.20776744186878204
 23
-0.20827051997184753
 33
0.4567720890045166
  0
3DFACE
  8
0
 10
-0.33002641797065735
 20
-0.21027052402496338
 30
0.46692991256713867
 11
-0.2097674459218979
 21
-0.21027052402496338
 31
0.46692991256713867
 12
-0.20976746082305908
 22
-0.20953072607517242
 32
0.47114095091819763
 13
-0.3266602158546448
 23
-0.20953072607517242
 33
0.47114095091819763
  0
3DFACE
  8
0
 10
-0.2097674459218979
 20
0.2101273536682129
 30
0.46692991256713867
 11
-0.33002641797065735
 21
0.2101273536682129
 31
0.46692991256713867
 12
-0.3266602158546448
 22
0.20938755571842194
 32
0.47114095091819763
 13
-0.20976746082305908
 23
0.20938755571842194
 33
0.47114095091819763
  0
3DFACE
  8
0
 10
0.20984533429145813
 20
-0.21027052402496338
 30
0.46692991256713867
 11
0.33002641797065735
 21
-0.21027052402496338
 31
0.46692991256713867
 12
0.3266602158546448
 22
-0.20953072607517242
 32
0.47114095091819763
 13
0.20984533429145813
 23
-0.20953072607517242
 33
0.47114095091819763
  0
3DFACE
  8
0
 10
0.33002641797065735
 20
0.2101273536682129
 30
0.46692991256713867
 11
0.20984533429145813
 21
0.2101273536682129
 31
0.46692991256713867
 12
0.20984533429145813
 22
0.20938755571842194
 32
0.47114095091819763
 13
0.3266602158546448
 23
0.20938755571842194
 33
0.47114095091819763
  0
3DFACE
  8
0
 10
0.33002641797065735
 20
-0.33002641797065735
 30
0.4567720890045166
 11
-0.33002641797065735
 21
-0.33002641797065735
 31
0.4567720890045166
 12
-0.20776744186878204
 22
-0.20827051997184753
 32
0.4567720890045166
 13
0.20784533023834229
 23
-0.20827051997184753
 33
0.4567720890045166
  0
3DFACE
  8
0
 10
0.20784533023834229
 20
0.20812734961509705
 30
0.4567720890045166
 11
0.33002641797065735
 21
0.33002641797065735
 31
0.4567720890045166
 12
0.33002641797065735
 22
0.2101273536682129
 32
0.4567720890045166
 13
0.33002641797065735
 23
0.2101273536682129
 33
0.4567720890045166
  0
3DFACE
  8
0
 10
0.33002641797065735
 20
-0.21027052402496338
 30
0.46692991256713867
 11
0.20984533429145813
 21
-0.21027052402496338
 31
0.46692991256713867
 12
0.3266602158546448
 22
-0.2112143188714981
 32
0.47114095091819763
 13
0.3266602158546448
 23
-0.2112143188714981
 33
0.47114095091819763
  0
3DFACE
  8
0
 10
0.20984533429145813
 20
-0.21027052402496338
 30
0.46692991256713867
 11
-0.2097674459218979
 21
-0.21027052402496338
 31
0.46692991256713867
 12
-0.3266602158546448
 22
-0.2112143188714981
 32
0.47114095091819763
 13
0.3266602158546448
 23
-0.2112143188714981
 33
0.47114095091819763
  0
3DFACE
  8
0
 10
-0.33002641797065735
 20
0.2101273536682129
 30
0.46692991256713867
 11
-0.2097674459218979
 21
0.2101273536682129
 31
0.46692991256713867
 12
-0.3266602158546448
 22
0.21107114851474762
 32
0.47114095091819763
 13
-0.3266602158546448
 23
0.21107114851474762
 33
0.47114095091819763
  0
3DFACE
  8
0
 10
-0.2097674459218979
 20
0.2101273536682129
 30
0.46692991256713867
 11
0.20984533429145813
 21
0.2101273536682129
 31
0.46692991256713867
 12
0.3266602158546448
 22
0.21107114851474762
 32
0.47114095091819763
 13
-0.3266602158546448
 23
0.21107114851474762
 33
0.47114095091819763
  0
3DFACE
  8
0
 10
-0.33002641797065735
 20
0.2101273536682129
 30
0.46692991256713867
 11
-0.33002641797065735
 21
-0.21027052402496338
 31
0.46692991256713867
 12
-0.3266602158546448
 22
-0.20953072607517242
 32
0.47114095091819763
 13
-0.3266602158546448
 23
0.20938755571842194
 33
0.47114095091819763
  0
3DFACE
  8
0
 10
0.20984533429145813
 20
-0.21027052402496338
 30
0.46185100078582764
 11
-0.2097674459218979
 21
-0.21027052402496338
 31
0.46185100078582764
 12
-0.2097674459218979
 22
-0.21027052402496338
 32
0.46692991256713867
 13
0.20984533429145813
 23
-0.21027052402496338
 33
0.46692991256713867
  0
3DFACE
  8
0
 10
-0.33002641797065735
 20
0.2101273536682129
 30
0.4567720890045166
 11
-0.33002641797065735
 21
0.33002641797065735
 31
0.4567720890045166
 12
-0.20776744186878204
 22
0.20812734961509705
 32
0.4567720890045166
 13
-0.20776744186878204
 23
0.20812734961509705
 33
0.4567720890045166
  0
3DFACE
  8
0
 10
0.33002641797065735
 20
-0.21027052402496338
 30
0.46692991256713867
 11
0.33002641797065735
 21
0.2101273536682129
 31
0.46692991256713867
 12
0.3266602158546448
 22
0.20938755571842194
 32
0.47114095091819763
 13
0.3266602158546448
 23
-0.20953072607517242
 33
0.47114095091819763
  0
3DFACE
  8
0
 10
0.20984533429145813
 20
0.2101273536682129
 30
0.46692991256713867
 11
0.20984533429145813
 21
-0.21027052402496338
 31
0.46692991256713867
 12
0.20984533429145813
 22
-0.20953072607517242
 32
0.47114095091819763
 13
0.20984533429145813
 23
0.20938755571842194
 33
0.47114095091819763
  0
3DFACE
  8
0
 10
-0.2097674459218979
 20
-0.21027052402496338
 30
0.46692991256713867
 11
-0.2097674459218979
 21
0.2101273536682129
 31
0.46692991256713867
 12
-0.20976746082305908
 22
0.20938755571842194
 32
0.47114095091819763
 13
-0.20976746082305908
 23
-0.20953072607517242
 33
0.47114095091819763
  0
3DFACE
  8
0
 10
-0.33002641797065735
 20
-0.21027052402496338
 30
0.4567720890045166
 11
-0.33002641797065735
 21
-0.33002641797065735
 31
0.4567720890045166
 12
-0.33002641797065735
 22
-0.33002641797065735
 32
0.46692991256713867
 13
-0.33002641797065735
 23
-0.21027052402496338
 33
0.46692991256713867
  0
3DFACE
  8
0
 10
-0.33002641797065735
 20
0.2101273536682129
 30
0.4567720890045166
 11
-0.33002641797065735
 21
-0.21027052402496338
 31
0.4567720890045166
 12
-0.33002641797065735
 22
-0.21027052402496338
 32
0.46692991256713867
 13
-0.33002641797065735
 23
0.2101273536682129
 33
0.46692991256713867
  0
3DFACE
  8
0
 10
0.33002641797065735
 20
-0.21027052402496338
 30
0.4567720890045166
 11
0.33002641797065735
 21
0.2101273536682129
 31
0.4567720890045166
 12
0.33002641797065735
 22
0.2101273536682129
 32
0.46692991256713867
 13
0.33002641797065735
 23
-0.21027052402496338
 33
0.46692991256713867
  0
3DFACE
  8
0
 10
0.20984533429145813
 20
0.2101273536682129
 30
0.46185100078582764
 11
0.20984533429145813
 21
-0.21027052402496338
 31
0.46185100078582764
 12
0.20984533429145813
 22
-0.21027052402496338
 32
0.46692991256713867
 13
0.20984533429145813
 23
0.2101273536682129
 33
0.46692991256713867
  0
3DFACE
  8
0
 10
-0.2097674459218979
 20
-0.21027052402496338
 30
0.46185100078582764
 11
-0.2097674459218979
 21
0.2101273536682129
 31
0.46185100078582764
 12
-0.2097674459218979
 22
0.2101273536682129
 32
0.46692991256713867
 13
-0.2097674459218979
 23
-0.21027052402496338
 33
0.46692991256713867
  0
3DFACE
  8
0
 10
-0.33002641797065735
 20
-0.33002641797065735
 30
0.4567720890045166
 11
-0.33002641797065735
 21
-0.21027052402496338
 31
0.4567720890045166
 12
-0.20776744186878204
 22
-0.20827051997184753
 32
0.4567720890045166
 13
-0.20776744186878204
 23
-0.20827051997184753
 33
0.4567720890045166
  0
3DFACE
  8
0
 10
-0.33002641797065735
 20
0.33002641797065735
 30
0.4567720890045166
 11
0.33002641797065735
 21
0.33002641797065735
 31
0.4567720890045166
 12
0.20784533023834229
 22
0.20812734961509705
 32
0.4567720890045166
 13
-0.20776744186878204
 23
0.20812734961509705
 33
0.4567720890045166
  0
3DFACE
  8
0
 10
-0.2097674459218979
 20
0.2101273536682129
 30
0.46185100078582764
 11
0.20984533429145813
 21
0.2101273536682129
 31
0.46185100078582764
 12
0.20984533429145813
 22
0.2101273536682129
 32
0.46692991256713867
 13
-0.2097674459218979
 23
0.2101273536682129
 33
0.46692991256713867
  0
3DFACE
  8
0
 10
-0.20776744186878204
 20
-0.20827051997184753
 30
0.4567720890045166
 11
-0.20776744186878204
 21
0.20812734961509705
 31
0.4567720890045166
 12
-0.20776744186878204
 22
0.20812734961509705
 32
0.46185100078582764
 13
-0.20776744186878204
 23
-0.20827051997184753
 33
0.46185100078582764
  0
3DFACE
  8
0
 10
0.20784533023834229
 20
0.20812734961509705
 30
0.4567720890045166
 11
0.20784533023834229
 21
-0.20827051997184753
 31
0.4567720890045166
 12
0.20784533023834229
 22
-0.20827051997184753
 32
0.46185100078582764
 13
0.20784533023834229
 23
0.20812734961509705
 33
0.46185100078582764
  0
3DFACE
  8
0
 10
0.20784533023834229
 20
-0.20827051997184753
 30
0.4567720890045166
 11
-0.20776744186878204
 21
-0.20827051997184753
 31
0.4567720890045166
 12
-0.20776744186878204
 22
-0.20827051997184753
 32
0.46185100078582764
 13
0.20784533023834229
 23
-0.20827051997184753
 33
0.46185100078582764
  0
3DFACE
  8
0
 10
-0.20776744186878204
 20
0.20812734961509705
 30
0.4567720890045166
 11
0.20784533023834229
 21
0.20812734961509705
 31
0.4567720890045166
 12
0.20784533023834229
 22
0.20812734961509705
 32
0.46185100078582764
 13
-0.20776744186878204
 23
0.20812734961509705
 33
0.46185100078582764
  0
3DFACE
  8
0
 10
0.20784533023834229
 20
-0.20827051997184753
 30
0.46185100078582764
 11
-0.20776744186878204
 21
-0.20827051997184753
 31
0.46185100078582764
 12
-0.2097674459218979
 22
-0.21027052402496338
 32
0.46185100078582764
 13
0.20984533429145813
 23
-0.21027052402496338
 33
0.46185100078582764
  0
3DFACE
  8
0
 10
0.20784533023834229
 20
0.20812734961509705
 30
0.46185100078582764
 11
0.20784533023834229
 21
-0.20827051997184753
 31
0.46185100078582764
 12
0.20984533429145813
 22
-0.21027052402496338
 32
0.46185100078582764
 13
0.20984533429145813
 23
0.2101273536682129
 33
0.46185100078582764
  0
3DFACE
  8
0
 10
-0.20776744186878204
 20
-0.20827051997184753
 30
0.46185100078582764
 11
-0.20776744186878204
 21
0.20812734961509705
 31
0.46185100078582764
 12
-0.2097674459218979
 22
0.2101273536682129
 32
0.46185100078582764
 13
-0.2097674459218979
 23
-0.21027052402496338
 33
0.46185100078582764
  0
3DFACE
  8
0
 10
-0.20776744186878204
 20
0.20812734961509705
 30
0.46185100078582764
 11
0.20784533023834229
 21
0.20812734961509705
 31
0.46185100078582764
 12
0.20984533429145813
 22
0.2101273536682129
 32
0.46185100078582764
 13
-0.2097674459218979
 23
0.2101273536682129
 33
0.46185100078582764
  0
3DFACE
  8
0
 10
-0.23390233516693115
 20
-0.2975379526615143
 30
0.4546848237514496
 11
-0.23390233516693115
 21
-0.2975379526615143
 31
0.008666068315505981
 12
-0.23390233516693115
 22
-0.25249814987182617
 32
0.34227117896080017
 13
-0.23390233516693115
 23
-0.25249814987182617
 33
0.34227117896080017
  0
3DFACE
  8
0
 10
0.23394128680229187
 20
0.2524265646934509
 30
0.31769323348999023
 11
0.23394128680229187
 21
0.29746636748313904
 31
0.008666068315505981
 12
0.23394128680229187
 22
0.2524265646934509
 32
0.21234388649463654
 13
0.23394128680229187
 23
0.2524265646934509
 33
0.21234388649463654
  0
3DFACE
  8
0
 10
-0.23390233516693115
 20
0.29746636748313904
 30
0.008666068315505981
 11
-0.235902339220047
 21
0.2994663715362549
 31
0.006666064262390137
 12
-0.235902339220047
 22
0.2994663715362549
 32
0.45668482780456543
 13
-0.23390233516693115
 23
0.29746636748313904
 33
0.4546848237514496
  0
3DFACE
  8
0
 10
0.23394128680229187
 20
0.23646213114261627
 30
0.008666068315505981
 11
0.23394128680229187
 21
0.29746636748313904
 31
0.008666068315505981
 12
0.23594129085540771
 22
0.2994663715362549
 32
0.006666064262390137
 13
0.23594129085540771
 23
0.23446212708950043
 33
0.006666064262390137
  0
3DFACE
  8
0
 10
-0.23390233516693115
 20
0.2524265646934509
 30
0.34227117896080017
 11
-0.23390233516693115
 21
0.2524265646934509
 31
0.31769323348999023
 12
-0.23390233516693115
 22
0.29746636748313904
 32
0.008666068315505981
 13
-0.23390233516693115
 23
0.29746636748313904
 33
0.008666068315505981
  0
3DFACE
  8
0
 10
-0.23390233516693115
 20
-0.25249814987182617
 30
0.34227117896080017
 11
-0.23390233516693115
 21
-0.2975379526615143
 31
0.008666068315505981
 12
-0.23390233516693115
 22
-0.25249814987182617
 32
0.31769323348999023
 13
-0.23390233516693115
 23
-0.25249814987182617
 33
0.31769323348999023
  0
3DFACE
  8
0
 10
-0.23390233516693115
 20
0.2524265646934509
 30
0.31769323348999023
 11
-0.23390233516693115
 21
0.2524265646934509
 31
0.21234388649463654
 12
-0.23390233516693115
 22
0.29746636748313904
 32
0.008666068315505981
 13
-0.23390233516693115
 23
0.29746636748313904
 33
0.008666068315505981
  0
3DFACE
  8
0
 10
-0.235902339220047
 20
0.23446212708950043
 30
0.006666064262390137
 11
-0.23827920854091644
 21
0.23683899641036987
 31
0.004732012748718262
 12
-0.23827920854091644
 22
0.29708948731422424
 32
0.004732012748718262
 13
-0.235902339220047
 23
0.2994663715362549
 33
0.006666064262390137
  0
3DFACE
  8
0
 10
-0.2989065945148468
 20
-0.23253370821475983
 30
0.008666068315505981
 11
-0.2526170611381531
 21
-0.23253370821475983
 31
0.18770501017570496
 12
-0.23790234327316284
 22
-0.23253370821475983
 32
0.008666068315505981
 13
-0.23790234327316284
 23
-0.23253370821475983
 33
0.008666068315505981
  0
3DFACE
  8
0
 10
0.29894551634788513
 20
0.23246212303638458
 30
0.008666068315505981
 11
0.2526559829711914
 21
0.23246212303638458
 31
0.18770501017570496
 12
0.23794129490852356
 22
0.23246212303638458
 32
0.008666068315505981
 13
0.23794129490852356
 23
0.23246212303638458
 33
0.008666068315505981
  0
3DFACE
  8
0
 10
-0.2989065945148468
 20
-0.23253370821475983
 30
0.4546848237514496
 11
-0.2989065945148468
 21
-0.23253370821475983
 31
0.008666068315505981
 12
-0.30090659856796265
 22
-0.23453371226787567
 32
0.006666064262390137
 13
-0.30090659856796265
 23
-0.23453371226787567
 33
0.45668482780456543
  0
3DFACE
  8
0
 10
-0.2989065945148468
 20
0.23246212303638458
 30
0.008666068315505981
 11
-0.23790234327316284
 21
0.23246212303638458
 31
0.008666068315505981
 12
-0.2526170611381531
 22
0.23246212303638458
 32
0.18770501017570496
 13
-0.2526170611381531
 23
0.23246212303638458
 33
0.18770501017570496
  0
3DFACE
  8
0
 10
-0.2989065945148468
 20
0.23246212303638458
 30
0.4546848237514496
 11
-0.2989065945148468
 21
0.23246212303638458
 31
0.008666068315505981
 12
-0.2526170611381531
 22
0.23246212303638458
 32
0.34227117896080017
 13
-0.23790234327316284
 23
0.23246212303638458
 33
0.4546848237514496
  0
3DFACE
  8
0
 10
-0.2989065945148468
 20
0.23246212303638458
 30
0.4546848237514496
 11
-0.30090659856796265
 21
0.23446212708950043
 31
0.45668482780456543
 12
-0.30090659856796265
 22
0.23446212708950043
 32
0.006666064262390137
 13
-0.2989065945148468
 23
0.23246212303638458
 33
0.008666068315505981
  0
3DFACE
  8
0
 10
0.300945520401001
 20
-0.23453371226787567
 30
0.006666064262390137
 11
0.29856863617897034
 21
-0.23691058158874512
 31
0.004732012748718262
 12
0.23831816017627716
 22
-0.23691058158874512
 32
0.004732012748718262
 13
0.23594129085540771
 23
-0.23453371226787567
 33
0.006666064262390137
  0
3DFACE
  8
0
 10
0.3029455244541168
 20
0.29746636748313904
 30
0.4546848237514496
 11
0.3029455244541168
 21
0.23646213114261627
 31
0.4546848237514496
 12
0.3029455244541168
 22
0.23646213114261627
 32
0.008666068315505981
 13
0.3029455244541168
 23
0.29746636748313904
 33
0.008666068315505981
  0
3DFACE
  8
0
 10
0.300945520401001
 20
0.2994663715362549
 30
0.006666064262390137
 11
0.300945520401001
 21
0.23446212708950043
 31
0.006666064262390137
 12
0.29856863617897034
 22
0.23683899641036987
 32
0.004732012748718262
 13
0.29856863617897034
 23
0.29708948731422424
 33
0.004732012748718262
  0
3DFACE
  8
0
 10
0.23594129085540771
 20
0.23446212708950043
 30
0.006666064262390137
 11
0.23594129085540771
 21
0.2994663715362549
 31
0.006666064262390137
 12
0.23831816017627716
 22
0.29708948731422424
 32
0.004732012748718262
 13
0.23831816017627716
 23
0.23683899641036987
 33
0.004732012748718262
  0
3DFACE
  8
0
 10
0.300945520401001
 20
-0.2995379567146301
 30
0.006666064262390137
 11
0.29856863617897034
 21
-0.2971610724925995
 31
0.004732012748718262
 12
0.29856863617897034
 22
-0.23691058158874512
 32
0.004732012748718262
 13
0.300945520401001
 23
-0.23453371226787567
 33
0.006666064262390137
  0
3DFACE
  8
0
 10
-0.2989065945148468
 20
-0.23253370821475983
 30
0.008666068315505981
 11
-0.23790234327316284
 21
-0.23253370821475983
 31
0.008666068315505981
 12
-0.235902339220047
 22
-0.23453371226787567
 32
0.006666064262390137
 13
-0.30090659856796265
 23
-0.23453371226787567
 33
0.006666064262390137
  0
3DFACE
  8
0
 10
0.23794129490852356
 20
-0.30153796076774597
 30
0.4546848237514496
 11
0.23794129490852356
 21
-0.30153796076774597
 31
0.008666068315505981
 12
0.29894551634788513
 22
-0.30153796076774597
 32
0.008666068315505981
 13
0.29894551634788513
 23
-0.30153796076774597
 33
0.4546848237514496
  0
3DFACE
  8
0
 10
-0.23790234327316284
 20
-0.30153796076774597
 30
0.4546848237514496
 11
-0.2989065945148468
 21
-0.30153796076774597
 31
0.4546848237514496
 12
-0.2989065945148468
 22
-0.30153796076774597
 32
0.008666068315505981
 13
-0.23790234327316284
 23
-0.30153796076774597
 33
0.008666068315505981
  0
3DFACE
  8
0
 10
-0.235902339220047
 20
0.2994663715362549
 30
0.006666064262390137
 11
-0.23827920854091644
 21
0.29708948731422424
 31
0.004732012748718262
 12
-0.298529714345932
 22
0.29708948731422424
 32
0.004732012748718262
 13
-0.30090659856796265
 23
0.2994663715362549
 33
0.006666064262390137
  0
3DFACE
  8
0
 10
-0.2989065945148468
 20
0.23246212303638458
 30
0.008666068315505981
 11
-0.2526170611381531
 21
0.23246212303638458
 31
0.21234388649463654
 12
-0.2526170611381531
 22
0.23246212303638458
 32
0.31769323348999023
 13
-0.2526170611381531
 23
0.23246212303638458
 33
0.31769323348999023
  0
3DFACE
  8
0
 10
-0.23790234327316284
 20
-0.30153796076774597
 30
0.4546848237514496
 11
-0.23790234327316284
 21
-0.30153796076774597
 31
0.008666068315505981
 12
-0.235902339220047
 22
-0.2995379567146301
 32
0.006666064262390137
 13
-0.235902339220047
 23
-0.2995379567146301
 33
0.45668482780456543
  0
3DFACE
  8
0
 10
-0.23390233516693115
 20
-0.25249814987182617
 30
0.18770501017570496
 11
-0.23390233516693115
 21
-0.2975379526615143
 31
0.008666068315505981
 12
-0.23390233516693115
 22
-0.23653371632099152
 32
0.008666068315505981
 13
-0.23390233516693115
 23
-0.23653371632099152
 33
0.008666068315505981
  0
3DFACE
  8
0
 10
0.3029455244541168
 20
-0.2975379526615143
 30
0.4546848237514496
 11
0.300945520401001
 21
-0.2995379567146301
 31
0.45668482780456543
 12
0.300945520401001
 22
-0.2995379567146301
 32
0.006666064262390137
 13
0.3029455244541168
 23
-0.2975379526615143
 33
0.008666068315505981
  0
3DFACE
  8
0
 10
-0.3029066026210785
 20
-0.2975379526615143
 30
0.4546848237514496
 11
-0.3029066026210785
 21
-0.2975379526615143
 31
0.008666068315505981
 12
-0.30090659856796265
 22
-0.2995379567146301
 32
0.006666064262390137
 13
-0.30090659856796265
 23
-0.2995379567146301
 33
0.45668482780456543
  0
3DFACE
  8
0
 10
-0.23390233516693115
 20
-0.25249814987182617
 30
0.31769323348999023
 11
-0.23390233516693115
 21
-0.2975379526615143
 31
0.008666068315505981
 12
-0.23390233516693115
 22
-0.25249814987182617
 32
0.21234388649463654
 13
-0.23390233516693115
 23
-0.25249814987182617
 33
0.21234388649463654
  0
3DFACE
  8
0
 10
-0.23790234327316284
 20
-0.30153796076774597
 30
0.008666068315505981
 11
-0.2989065945148468
 21
-0.30153796076774597
 31
0.008666068315505981
 12
-0.30090659856796265
 22
-0.2995379567146301
 32
0.006666064262390137
 13
-0.235902339220047
 23
-0.2995379567146301
 33
0.006666064262390137
  0
3DFACE
  8
0
 10
-0.23390233516693115
 20
0.29746636748313904
 30
0.4546848237514496
 11
-0.23390233516693115
 21
0.2524265646934509
 31
0.34227117896080017
 12
-0.23390233516693115
 22
0.29746636748313904
 32
0.008666068315505981
 13
-0.23390233516693115
 23
0.29746636748313904
 33
0.008666068315505981
  0
3DFACE
  8
0
 10
0.29894551634788513
 20
0.23246212303638458
 30
0.008666068315505981
 11
0.23794129490852356
 21
0.23246212303638458
 31
0.008666068315505981
 12
0.23594129085540771
 22
0.23446212708950043
 32
0.006666064262390137
 13
0.300945520401001
 23
0.23446212708950043
 33
0.006666064262390137
  0
3DFACE
  8
0
 10
-0.3029066026210785
 20
0.29746636748313904
 30
0.4546848237514496
 11
-0.30090659856796265
 21
0.2994663715362549
 31
0.45668482780456543
 12
-0.30090659856796265
 22
0.2994663715362549
 32
0.006666064262390137
 13
-0.3029066026210785
 23
0.29746636748313904
 33
0.008666068315505981
  0
3DFACE
  8
0
 10
-0.23390233516693115
 20
0.2524265646934509
 30
0.18770501017570496
 11
-0.23390233516693115
 21
0.23646213114261627
 31
0.008666068315505981
 12
-0.23390233516693115
 22
0.29746636748313904
 32
0.008666068315505981
 13
-0.23390233516693115
 23
0.29746636748313904
 33
0.008666068315505981
  0
3DFACE
  8
0
 10
0.23394128680229187
 20
0.2524265646934509
 30
0.18770501017570496
 11
0.23394128680229187
 21
0.29746636748313904
 31
0.008666068315505981
 12
0.23394128680229187
 22
0.23646213114261627
 32
0.008666068315505981
 13
0.23394128680229187
 23
0.23646213114261627
 33
0.008666068315505981
  0
3DFACE
  8
0
 10
0.29894551634788513
 20
-0.23253370821475983
 30
0.008666068315505981
 11
0.23794129490852356
 21
-0.23253370821475983
 31
0.008666068315505981
 12
0.2526559829711914
 22
-0.23253370821475983
 32
0.18770501017570496
 13
0.2526559829711914
 23
-0.23253370821475983
 33
0.18770501017570496
  0
3DFACE
  8
0
 10
0.23794129490852356
 20
-0.30153796076774597
 30
0.4546848237514496
 11
0.23594129085540771
 21
-0.2995379567146301
 31
0.45668482780456543
 12
0.23594129085540771
 22
-0.2995379567146301
 32
0.006666064262390137
 13
0.23794129490852356
 23
-0.30153796076774597
 33
0.008666068315505981
  0
3DFACE
  8
0
 10
0.29894551634788513
 20
-0.30153796076774597
 30
0.008666068315505981
 11
0.300945520401001
 21
-0.2995379567146301
 31
0.006666064262390137
 12
0.300945520401001
 22
-0.2995379567146301
 32
0.45668482780456543
 13
0.29894551634788513
 23
-0.30153796076774597
 33
0.4546848237514496
  0
3DFACE
  8
0
 10
0.29894551634788513
 20
0.23246212303638458
 30
0.4546848237514496
 11
0.29894551634788513
 21
0.23246212303638458
 31
0.008666068315505981
 12
0.300945520401001
 22
0.23446212708950043
 32
0.006666064262390137
 13
0.300945520401001
 23
0.23446212708950043
 33
0.45668482780456543
  0
3DFACE
  8
0
 10
-0.2989065945148468
 20
0.23246212303638458
 30
0.008666068315505981
 11
-0.2526170611381531
 21
0.23246212303638458
 31
0.18770501017570496
 12
-0.2526170611381531
 22
0.23246212303638458
 32
0.21234388649463654
 13
-0.2526170611381531
 23
0.23246212303638458
 33
0.21234388649463654
  0
3DFACE
  8
0
 10
-0.3029066026210785
 20
-0.2975379526615143
 30
0.4546848237514496
 11
-0.3029066026210785
 21
-0.23653371632099152
 31
0.4546848237514496
 12
-0.3029066026210785
 22
-0.23653371632099152
 32
0.008666068315505981
 13
-0.3029066026210785
 23
-0.2975379526615143
 33
0.008666068315505981
  0
3DFACE
  8
0
 10
-0.3029066026210785
 20
-0.23653371632099152
 30
0.008666068315505981
 11
-0.3029066026210785
 21
-0.23653371632099152
 31
0.4546848237514496
 12
-0.30090659856796265
 22
-0.23453371226787567
 32
0.45668482780456543
 13
-0.30090659856796265
 23
-0.23453371226787567
 33
0.006666064262390137
  0
3DFACE
  8
0
 10
0.23394128680229187
 20
0.29746636748313904
 30
0.4546848237514496
 11
0.23394128680229187
 21
0.29746636748313904
 31
0.008666068315505981
 12
0.23394128680229187
 22
0.2524265646934509
 32
0.34227117896080017
 13
0.23394128680229187
 23
0.2524265646934509
 33
0.34227117896080017
  0
3DFACE
  8
0
 10
-0.3029066026210785
 20
0.23646213114261627
 30
0.008666068315505981
 11
-0.30090659856796265
 21
0.23446212708950043
 31
0.006666064262390137
 12
-0.30090659856796265
 22
0.23446212708950043
 32
0.45668482780456543
 13
-0.3029066026210785
 23
0.23646213114261627
 33
0.4546848237514496
  0
3DFACE
  8
0
 10
-0.23790234327316284
 20
0.3014663755893707
 30
0.4546848237514496
 11
-0.235902339220047
 21
0.2994663715362549
 31
0.45668482780456543
 12
-0.235902339220047
 22
0.2994663715362549
 32
0.006666064262390137
 13
-0.23790234327316284
 23
0.3014663755893707
 33
0.008666068315505981
  0
3DFACE
  8
0
 10
-0.3029066026210785
 20
0.29746636748313904
 30
0.008666068315505981
 11
-0.30090659856796265
 21
0.2994663715362549
 31
0.006666064262390137
 12
-0.30090659856796265
 22
0.23446212708950043
 32
0.006666064262390137
 13
-0.3029066026210785
 23
0.23646213114261627
 33
0.008666068315505981
  0
3DFACE
  8
0
 10
0.23394128680229187
 20
0.2524265646934509
 30
0.21234388649463654
 11
0.23394128680229187
 21
0.29746636748313904
 31
0.008666068315505981
 12
0.23394128680229187
 22
0.2524265646934509
 32
0.18770501017570496
 13
0.23394128680229187
 23
0.2524265646934509
 33
0.18770501017570496
  0
3DFACE
  8
0
 10
-0.23390233516693115
 20
-0.25249814987182617
 30
0.21234388649463654
 11
-0.23390233516693115
 21
-0.2975379526615143
 31
0.008666068315505981
 12
-0.23390233516693115
 22
-0.25249814987182617
 32
0.18770501017570496
 13
-0.23390233516693115
 23
-0.25249814987182617
 33
0.18770501017570496
  0
3DFACE
  8
0
 10
0.23394128680229187
 20
-0.2975379526615143
 30
0.008666068315505981
 11
0.23594129085540771
 21
-0.2995379567146301
 31
0.006666064262390137
 12
0.23594129085540771
 22
-0.2995379567146301
 32
0.45668482780456543
 13
0.23394128680229187
 23
-0.2975379526615143
 33
0.4546848237514496
  0
3DFACE
  8
0
 10
0.3029455244541168
 20
0.23646213114261627
 30
0.008666068315505981
 11
0.3029455244541168
 21
0.23646213114261627
 31
0.4546848237514496
 12
0.300945520401001
 22
0.23446212708950043
 32
0.45668482780456543
 13
0.300945520401001
 23
0.23446212708950043
 33
0.006666064262390137
  0
3DFACE
  8
0
 10
-0.23390233516693115
 20
-0.2975379526615143
 30
0.008666068315505981
 11
-0.23390233516693115
 21
-0.2975379526615143
 31
0.4546848237514496
 12
-0.235902339220047
 22
-0.2995379567146301
 32
0.45668482780456543
 13
-0.235902339220047
 23
-0.2995379567146301
 33
0.006666064262390137
  0
3DFACE
  8
0
 10
-0.2989065945148468
 20
-0.30153796076774597
 30
0.008666068315505981
 11
-0.2989065945148468
 21
-0.30153796076774597
 31
0.4546848237514496
 12
-0.30090659856796265
 22
-0.2995379567146301
 32
0.45668482780456543
 13
-0.30090659856796265
 23
-0.2995379567146301
 33
0.006666064262390137
  0
3DFACE
  8
0
 10
0.3029455244541168
 20
-0.2975379526615143
 30
0.008666068315505981
 11
0.300945520401001
 21
-0.2995379567146301
 31
0.006666064262390137
 12
0.300945520401001
 22
-0.23453371226787567
 32
0.006666064262390137
 13
0.3029455244541168
 23
-0.23653371632099152
 33
0.008666068315505981
  0
3DFACE
  8
0
 10
-0.3029066026210785
 20
-0.2975379526615143
 30
0.008666068315505981
 11
-0.3029066026210785
 21
-0.23653371632099152
 31
0.008666068315505981
 12
-0.30090659856796265
 22
-0.23453371226787567
 32
0.006666064262390137
 13
-0.30090659856796265
 23
-0.2995379567146301
 33
0.006666064262390137
  0
3DFACE
  8
0
 10
0.23394128680229187
 20
0.29746636748313904
 30
0.008666068315505981
 11
0.23394128680229187
 21
0.29746636748313904
 31
0.4546848237514496
 12
0.23594129085540771
 22
0.2994663715362549
 32
0.45668482780456543
 13
0.23594129085540771
 23
0.2994663715362549
 33
0.006666064262390137
  0
3DFACE
  8
0
 10
0.23794129490852356
 20
-0.30153796076774597
 30
0.008666068315505981
 11
0.23594129085540771
 21
-0.2995379567146301
 31
0.006666064262390137
 12
0.300945520401001
 22
-0.2995379567146301
 32
0.006666064262390137
 13
0.29894551634788513
 23
-0.30153796076774597
 33
0.008666068315505981
  0
3DFACE
  8
0
 10
-0.23390233516693115
 20
0.2524265646934509
 30
0.21234388649463654
 11
-0.23390233516693115
 21
0.2524265646934509
 31
0.18770501017570496
 12
-0.23390233516693115
 22
0.29746636748313904
 32
0.008666068315505981
 13
-0.23390233516693115
 23
0.29746636748313904
 33
0.008666068315505981
  0
3DFACE
  8
0
 10
-0.23790234327316284
 20
0.3014663755893707
 30
0.008666068315505981
 11
-0.235902339220047
 21
0.2994663715362549
 31
0.006666064262390137
 12
-0.30090659856796265
 22
0.2994663715362549
 32
0.006666064262390137
 13
-0.2989065945148468
 23
0.3014663755893707
 33
0.008666068315505981
  0
3DFACE
  8
0
 10
0.3029455244541168
 20
0.29746636748313904
 30
0.008666068315505981
 11
0.3029455244541168
 21
0.23646213114261627
 31
0.008666068315505981
 12
0.300945520401001
 22
0.23446212708950043
 32
0.006666064262390137
 13
0.300945520401001
 23
0.2994663715362549
 33
0.006666064262390137
  0
3DFACE
  8
0
 10
-0.2989065945148468
 20
0.3014663755893707
 30
0.008666068315505981
 11
-0.30090659856796265
 21
0.2994663715362549
 31
0.006666064262390137
 12
-0.30090659856796265
 22
0.2994663715362549
 32
0.45668482780456543
 13
-0.2989065945148468
 23
0.3014663755893707
 33
0.4546848237514496
  0
3DFACE
  8
0
 10
0.23394128680229187
 20
-0.25249814987182617
 30
0.18770501017570496
 11
0.23394128680229187
 21
-0.23653371632099152
 31
0.008666068315505981
 12
0.23394128680229187
 22
-0.2975379526615143
 32
0.008666068315505981
 13
0.23394128680229187
 23
-0.2975379526615143
 33
0.008666068315505981
  0
3DFACE
  8
0
 10
-0.23790234327316284
 20
0.3014663755893707
 30
0.4546848237514496
 11
-0.23790234327316284
 21
0.3014663755893707
 31
0.008666068315505981
 12
-0.2989065945148468
 22
0.3014663755893707
 32
0.008666068315505981
 13
-0.2989065945148468
 23
0.3014663755893707
 33
0.4546848237514496
  0
3DFACE
  8
0
 10
-0.23390233516693115
 20
0.23646213114261627
 30
0.008666068315505981
 11
-0.235902339220047
 21
0.23446212708950043
 31
0.006666064262390137
 12
-0.235902339220047
 22
0.2994663715362549
 32
0.006666064262390137
 13
-0.23390233516693115
 23
0.29746636748313904
 33
0.008666068315505981
  0
3DFACE
  8
0
 10
-0.2989065945148468
 20
0.23246212303638458
 30
0.008666068315505981
 11
-0.2526170611381531
 21
0.23246212303638458
 31
0.31769323348999023
 12
-0.2526170611381531
 22
0.23246212303638458
 32
0.34227117896080017
 13
-0.2526170611381531
 23
0.23246212303638458
 33
0.34227117896080017
  0
3DFACE
  8
0
 10
0.29894551634788513
 20
-0.23253370821475983
 30
0.008666068315505981
 11
0.300945520401001
 21
-0.23453371226787567
 31
0.006666064262390137
 12
0.23594129085540771
 22
-0.23453371226787567
 32
0.006666064262390137
 13
0.23794129490852356
 23
-0.23253370821475983
 33
0.008666068315505981
  0
3DFACE
  8
0
 10
0.23394128680229187
 20
-0.23653371632099152
 30
0.008666068315505981
 11
0.23594129085540771
 21
-0.23453371226787567
 31
0.006666064262390137
 12
0.23594129085540771
 22
-0.2995379567146301
 32
0.006666064262390137
 13
0.23394128680229187
 23
-0.2975379526615143
 33
0.008666068315505981
  0
3DFACE
  8
0
 10
0.23594129085540771
 20
0.2994663715362549
 30
0.006666064262390137
 11
0.300945520401001
 21
0.2994663715362549
 31
0.006666064262390137
 12
0.29856863617897034
 22
0.29708948731422424
 32
0.004732012748718262
 13
0.23831816017627716
 23
0.29708948731422424
 33
0.004732012748718262
  0
3DFACE
  8
0
 10
0.23794129490852356
 20
0.3014663755893707
 30
0.008666068315505981
 11
0.29894551634788513
 21
0.3014663755893707
 31
0.008666068315505981
 12
0.300945520401001
 22
0.2994663715362549
 32
0.006666064262390137
 13
0.23594129085540771
 23
0.2994663715362549
 33
0.006666064262390137
  0
3DFACE
  8
0
 10
-0.3029066026210785
 20
0.29746636748313904
 30
0.4546848237514496
 11
-0.3029066026210785
 21
0.29746636748313904
 31
0.008666068315505981
 12
-0.3029066026210785
 22
0.23646213114261627
 32
0.008666068315505981
 13
-0.3029066026210785
 23
0.23646213114261627
 33
0.4546848237514496
  0
3DFACE
  8
0
 10
0.23394128680229187
 20
0.2524265646934509
 30
0.34227117896080017
 11
0.23394128680229187
 21
0.29746636748313904
 31
0.008666068315505981
 12
0.23394128680229187
 22
0.2524265646934509
 32
0.31769323348999023
 13
0.23394128680229187
 23
0.2524265646934509
 33
0.31769323348999023
  0
3DFACE
  8
0
 10
0.20963749289512634
 20
-0.21006229519844055
 30
0.4647861421108246
 11
0.20963749289512634
 21
0.20991912484169006
 31
0.4647861421108246
 12
0.20658254623413086
 22
0.20685847103595734
 32
0.46969398856163025
 13
0.20658254623413086
 23
-0.20700164139270782
 33
0.46969398856163025
  0
3DFACE
  8
0
 10
-0.2095595896244049
 20
-0.21006229519844055
 30
0.4647861421108246
 11
0.20963749289512634
 21
-0.21006229519844055
 31
0.4647861421108246
 12
0.20658254623413086
 22
-0.20700164139270782
 32
0.46969398856163025
 13
-0.20650464296340942
 23
-0.20700164139270782
 33
0.46969398856163025
  0
3DFACE
  8
0
 10
-0.20650464296340942
 20
0.20685847103595734
 30
0.46969398856163025
 11
-0.20650464296340942
 21
-0.20700164139270782
 31
0.46969398856163025
 12
0.20658254623413086
 22
-0.20700164139270782
 32
0.46969398856163025
 13
0.20658254623413086
 23
0.20685847103595734
 33
0.46969398856163025
  0
3DFACE
  8
0
 10
-0.2095595896244049
 20
-0.21006229519844055
 30
0.462062805891037
 11
-0.2095595896244049
 21
0.20991912484169006
 31
0.462062805891037
 12
0.20963749289512634
 22
0.20991912484169006
 32
0.462062805891037
 13
0.20963749289512634
 23
-0.21006229519844055
 33
0.462062805891037
  0
3DFACE
  8
0
 10
-0.2095595896244049
 20
0.20991912484169006
 30
0.4647861421108246
 11
-0.2095595896244049
 21
-0.21006229519844055
 31
0.4647861421108246
 12
-0.20650464296340942
 22
-0.20700164139270782
 32
0.46969398856163025
 13
-0.20650464296340942
 23
0.20685847103595734
 33
0.46969398856163025
  0
3DFACE
  8
0
 10
0.20963749289512634
 20
0.20991912484169006
 30
0.4647861421108246
 11
-0.2095595896244049
 21
0.20991912484169006
 31
0.4647861421108246
 12
-0.20650464296340942
 22
0.20685847103595734
 32
0.46969398856163025
 13
0.20658254623413086
 23
0.20685847103595734
 33
0.46969398856163025
  0
3DFACE
  8
0
 10
0.20963749289512634
 20
0.20991912484169006
 30
0.462062805891037
 11
-0.2095595896244049
 21
0.20991912484169006
 31
0.462062805891037
 12
-0.2095595896244049
 22
0.20991912484169006
 32
0.4647861421108246
 13
0.20963749289512634
 23
0.20991912484169006
 33
0.4647861421108246
  0
3DFACE
  8
0
 10
-0.2095595896244049
 20
0.20991912484169006
 30
0.462062805891037
 11
-0.2095595896244049
 21
-0.21006229519844055
 31
0.462062805891037
 12
-0.2095595896244049
 22
-0.21006229519844055
 32
0.4647861421108246
 13
-0.2095595896244049
 23
0.20991912484169006
 33
0.4647861421108246
  0
3DFACE
  8
0
 10
0.20963749289512634
 20
-0.21006229519844055
 30
0.462062805891037
 11
0.20963749289512634
 21
0.20991912484169006
 31
0.462062805891037
 12
0.20963749289512634
 22
0.20991912484169006
 32
0.4647861421108246
 13
0.20963749289512634
 23
-0.21006229519844055
 33
0.4647861421108246
  0
3DFACE
  8
0
 10
-0.2095595896244049
 20
-0.21006229519844055
 30
0.462062805891037
 11
0.20963749289512634
 21
-0.21006229519844055
 31
0.462062805891037
 12
0.20963749289512634
 22
-0.21006229519844055
 32
0.4647861421108246
 13
-0.2095595896244049
 23
-0.21006229519844055
 33
0.4647861421108246
  0
ENDSEC
  0
EOF
